<mxfile host="Electron" agent="Mozilla/5.0 (Windows NT 10.0; Win64; x64) AppleWebKit/537.36 (KHTML, like Gecko) draw.io/26.2.2 Chrome/134.0.6998.178 Electron/35.1.2 Safari/537.36" version="26.2.2">
  <diagram name="Pagina-1" id="GpR_nfLSAs4GN7BkKQA8">
    <mxGraphModel dx="985" dy="580" grid="1" gridSize="10" guides="1" tooltips="1" connect="1" arrows="1" fold="1" page="1" pageScale="1" pageWidth="827" pageHeight="1169" math="1" shadow="0">
      <root>
        <mxCell id="0" />
        <mxCell id="1" parent="0" />
        <mxCell id="QojNYpFEsTkHcpdhv4qP-1" value="" style="shape=image;aspect=fixed;image=data:image/svg+xml,PD94bWwgdmVyc2lvbj0iMS4wIj8+DQo8IURPQ1RZUEUgc3ZnIFBVQkxJQyAnLS8vVzNDLy9EVEQgU1ZHIDEuMC8vRU4nDQogICAgICAgICAgJ2h0dHA6Ly93d3cudzMub3JnL1RSLzIwMDEvUkVDLVNWRy0yMDAxMDkwNC9EVEQvc3ZnMTAuZHRkJz4NCjxzdmcgeG1sbnM6eGxpbms9Imh0dHA6Ly93d3cudzMub3JnLzE5OTkveGxpbmsiIHN0eWxlPSJmaWxsLW9wYWNpdHk6MTsgY29sb3ItcmVuZGVyaW5nOmF1dG87IGNvbG9yLWludGVycG9sYXRpb246YXV0bzsgdGV4dC1yZW5kZXJpbmc6YXV0bzsgc3Ryb2tlOmJsYWNrOyBzdHJva2UtbGluZWNhcDpzcXVhcmU7IHN0cm9rZS1taXRlcmxpbWl0OjEwOyBzaGFwZS1yZW5kZXJpbmc6YXV0bzsgc3Ryb2tlLW9wYWNpdHk6MTsgZmlsbDpibGFjazsgc3Ryb2tlLWRhc2hhcnJheTpub25lOyBmb250LXdlaWdodDpub3JtYWw7IHN0cm9rZS13aWR0aDoxOyBmb250LWZhbWlseTonRGlhbG9nJzsgZm9udC1zdHlsZTpub3JtYWw7IHN0cm9rZS1saW5lam9pbjptaXRlcjsgZm9udC1zaXplOjEycHg7IHN0cm9rZS1kYXNob2Zmc2V0OjA7IGltYWdlLXJlbmRlcmluZzphdXRvOyIgd2lkdGg9IjU2MCIgaGVpZ2h0PSI0MjAiIHhtbG5zPSJodHRwOi8vd3d3LnczLm9yZy8yMDAwL3N2ZyINCj48IS0tR2VuZXJhdGVkIGJ5IHRoZSBCYXRpayBHcmFwaGljczJEIFNWRyBHZW5lcmF0b3ItLT48ZGVmcyBpZD0iZ2VuZXJpY0RlZnMiDQogIC8+PGcNCiAgPjxkZWZzIGlkPSJkZWZzMSINCiAgICA+PGNsaXBQYXRoIGNsaXBQYXRoVW5pdHM9InVzZXJTcGFjZU9uVXNlIiBpZD0iY2xpcFBhdGgxIg0KICAgICAgPjxwYXRoIGQ9Ik0wIDAgTDU2MCAwIEw1NjAgNDIwIEwwIDQyMCBMMCAwIFoiDQogICAgICAvPjwvY2xpcFBhdGgNCiAgICA+PC9kZWZzDQogICAgPjxnIHN0eWxlPSJmaWxsOndoaXRlOyBzdHJva2U6d2hpdGU7Ig0KICAgID48cmVjdCB4PSIwIiB5PSIwIiB3aWR0aD0iNTYwIiBzdHlsZT0iY2xpcC1wYXRoOnVybCgjY2xpcFBhdGgxKTsgc3Ryb2tlOm5vbmU7IiBoZWlnaHQ9IjQyMCINCiAgICAvPjwvZw0KICAgID48ZyBzdHlsZT0iZmlsbDp3aGl0ZTsgdGV4dC1yZW5kZXJpbmc6b3B0aW1pemVTcGVlZDsgY29sb3ItcmVuZGVyaW5nOm9wdGltaXplU3BlZWQ7IGltYWdlLXJlbmRlcmluZzpvcHRpbWl6ZVNwZWVkOyBzaGFwZS1yZW5kZXJpbmc6Y3Jpc3BFZGdlczsgc3Ryb2tlOndoaXRlOyBjb2xvci1pbnRlcnBvbGF0aW9uOnNSR0I7Ig0KICAgID48cmVjdCB4PSIwIiB3aWR0aD0iNTYwIiBoZWlnaHQ9IjQyMCIgeT0iMCIgc3R5bGU9InN0cm9rZTpub25lOyINCiAgICAgIC8+PHBhdGggc3R5bGU9InN0cm9rZTpub25lOyIgZD0iTTczIDM3NCBMNTA3IDM3NCBMNTA3IDMxIEw3MyAzMSBaIg0KICAgIC8+PC9nDQogICAgPjxnIHN0eWxlPSJmaWxsOnJnYigzOCwzOCwzOCk7IHRleHQtcmVuZGVyaW5nOmdlb21ldHJpY1ByZWNpc2lvbjsgaW1hZ2UtcmVuZGVyaW5nOm9wdGltaXplUXVhbGl0eTsgY29sb3ItcmVuZGVyaW5nOm9wdGltaXplUXVhbGl0eTsgc3Ryb2tlLWxpbmVqb2luOnJvdW5kOyBzdHJva2U6cmdiKDM4LDM4LDM4KTsgY29sb3ItaW50ZXJwb2xhdGlvbjpsaW5lYXJSR0I7IHN0cm9rZS13aWR0aDowLjY2Njc7Ig0KICAgID48bGluZSB5Mj0iMzc0IiBzdHlsZT0iZmlsbDpub25lOyIgeDE9IjczIiB4Mj0iNTA3IiB5MT0iMzc0Ig0KICAgIC8+PC9nDQogICAgPjxnIHRyYW5zZm9ybT0idHJhbnNsYXRlKDI5MC4wMDAyLDM3OS4zMzMzKSIgc3R5bGU9ImZvbnQtc2l6ZToxNnB4OyBmaWxsOnJnYigzOCwzOCwzOCk7IHRleHQtcmVuZGVyaW5nOmdlb21ldHJpY1ByZWNpc2lvbjsgaW1hZ2UtcmVuZGVyaW5nOm9wdGltaXplUXVhbGl0eTsgY29sb3ItcmVuZGVyaW5nOm9wdGltaXplUXVhbGl0eTsgZm9udC1mYW1pbHk6J213YV9jbW1pMTAnOyBzdHJva2U6cmdiKDM4LDM4LDM4KTsgY29sb3ItaW50ZXJwb2xhdGlvbjpsaW5lYXJSR0I7Ig0KICAgID48cGF0aCBzdHlsZT0ic3Ryb2tlOm5vbmU7IiBkPSJNLTIuNTk3MSAxMy4xNTg3IFEtMi41OTcxIDEzLjA2NDkgLTIuNTgxNSAxMy4wMTgxIEwtMS4zNzg0IDguMjUyNCBRLTEuMjY5IDcuNzk5MyAtMS4yNjkgNy40NzEyIFEtMS4yNjkgNi43ODM3IC0xLjczNzcgNi43ODM3IFEtMi4yMzc3IDYuNzgzNyAtMi40Nzk5IDcuMzc3NCBRLTIuNzIyMSA3Ljk3MTIgLTIuOTQwOSA4Ljg5MzEgUS0yLjk0MDkgOC45Mzk5IC0yLjk4NzcgOC45NjM0IFEtMy4wMzQ2IDguOTg2OCAtMy4wODE1IDguOTg2OCBMLTMuMjY5IDguOTg2OCBRLTMuMzE1OSA4Ljk4NjggLTMuMzU0OSA4LjkzMjEgUS0zLjM5NCA4Ljg3NzQgLTMuMzk0IDguODMwNiBRLTMuMjIyMSA4LjEyNzQgLTMuMDY1OSA3LjY0MzEgUS0yLjkwOTYgNy4xNTg3IC0yLjU2NTkgNi43NjAzIFEtMi4yMjIxIDYuMzYxOCAtMS43MjIxIDYuMzYxOCBRLTEuMTU5NiA2LjM2MTggLTAuNzQ1NiA2LjY4MjEgUS0wLjMzMTUgNy4wMDI0IC0wLjIyMjEgNy41MzM3IFEwLjE4NDEgNy4wMDI0IDAuNjk5OCA2LjY4MjEgUTEuMjE1NCA2LjM2MTggMS44NDA0IDYuMzYxOCBRMi4zNDA0IDYuMzYxOCAyLjczMSA2LjY1ODcgUTMuMTIxNiA2Ljk1NTYgMy4xMjE2IDcuNDcxMiBRMy4xMjE2IDcuODc3NCAyLjg2MzggOC4xNzQzIFEyLjYwNiA4LjQ3MTIgMi4xODQxIDguNDcxMiBRMS45MzQxIDguNDcxMiAxLjc1NDQgOC4zMTQ5IFExLjU3NDggOC4xNTg3IDEuNTc0OCA3Ljg5MzEgUTEuNTc0OCA3LjU0OTMgMS44MzI2IDcuMjY4MSBRMi4wOTA0IDYuOTg2OCAyLjQzNDEgNi45ODY4IFEyLjE2ODUgNi43ODM3IDEuODA5MSA2Ljc4MzcgUTEuMTIxNiA2Ljc4MzcgMC42MTM4IDcuMjY4MSBRMC4xMDYgNy43NTI0IC0wLjMwMDIgOC41MDI0IEwtMS40NDA5IDEzLjA4MDYgUS0xLjUwMzQgMTMuMjk5MyAtMS42OTA5IDEzLjQ2MzQgUS0xLjg3ODQgMTMuNjI3NCAtMi4xMTI3IDEzLjYyNzQgUS0yLjMxNTkgMTMuNjI3NCAtMi40NTY1IDEzLjQ5NDYgUS0yLjU5NzEgMTMuMzYxOCAtMi41OTcxIDEzLjE1ODcgWiINCiAgICAvPjwvZw0KICAgID48ZyBzdHlsZT0iZmlsbDpyZ2IoMzgsMzgsMzgpOyB0ZXh0LXJlbmRlcmluZzpnZW9tZXRyaWNQcmVjaXNpb247IGltYWdlLXJlbmRlcmluZzpvcHRpbWl6ZVF1YWxpdHk7IGNvbG9yLXJlbmRlcmluZzpvcHRpbWl6ZVF1YWxpdHk7IHN0cm9rZS1saW5lam9pbjpyb3VuZDsgc3Ryb2tlOnJnYigzOCwzOCwzOCk7IGNvbG9yLWludGVycG9sYXRpb246bGluZWFyUkdCOyBzdHJva2Utd2lkdGg6MC42NjY3OyINCiAgICA+PGxpbmUgeTI9IjMxIiBzdHlsZT0iZmlsbDpub25lOyIgeDE9IjczIiB4Mj0iNzMiIHkxPSIzNzQiDQogICAgLz48L2cNCiAgICA+PGcgdHJhbnNmb3JtPSJ0cmFuc2xhdGUoNjcuNjY2NywyMDIuNDk5OCkgcm90YXRlKC05MCkiIHN0eWxlPSJmb250LXNpemU6MTZweDsgZmlsbDpyZ2IoMzgsMzgsMzgpOyB0ZXh0LXJlbmRlcmluZzpnZW9tZXRyaWNQcmVjaXNpb247IGltYWdlLXJlbmRlcmluZzpvcHRpbWl6ZVF1YWxpdHk7IGNvbG9yLXJlbmRlcmluZzpvcHRpbWl6ZVF1YWxpdHk7IGZvbnQtZmFtaWx5Oidtd2FfY21taTEwJzsgc3Ryb2tlOnJnYigzOCwzOCwzOCk7IGNvbG9yLWludGVycG9sYXRpb246bGluZWFyUkdCOyINCiAgICA+PHBhdGggc3R5bGU9InN0cm9rZTpub25lOyIgZD0iTS01LjYxNjcgLTUuNzYwMSBRLTUuNzcyOSAtNS43NjAxIC01Ljc3MjkgLTUuOTc4OCBRLTUuNzU3MyAtNi4wMTAxIC01LjczMzggLTYuMTExNiBRLTUuNzEwNCAtNi4yMTMyIC01LjY3MTMgLTYuMjY3OSBRLTUuNjMyMyAtNi4zMjI2IC01LjU2OTggLTYuMzIyNiBRLTQuNTg1NCAtNi4zMjI2IC00LjIxMDQgLTYuNDMxOSBRLTMuOTkxNyAtNi41MTAxIC0zLjg5NzkgLTYuODY5NCBMLTEuNzEwNCAtMTUuNjUwNyBRLTEuNjc5MiAtMTUuODA2OSAtMS42NzkyIC0xNS44Njk0IFEtMS42NzkyIC0xNi4wNDEzIC0xLjg2NjcgLTE2LjA3MjYgUS0yLjE2MzUgLTE2LjEzNTEgLTMuMDIyOSAtMTYuMTM1MSBRLTMuMTc5MiAtMTYuMTM1MSAtMy4xNzkyIC0xNi4zMzgyIFEtMy4xNjM1IC0xNi4zODUxIC0zLjE0MDEgLTE2LjQ3ODggUS0zLjExNjcgLTE2LjU3MjYgLTMuMDc3NiAtMTYuNjM1MSBRLTMuMDM4NSAtMTYuNjk3NiAtMi45NzYgLTE2LjY5NzYgTDUuNjk1OCAtMTYuNjk3NiBRNS44Njc3IC0xNi42OTc2IDUuODY3NyAtMTYuNDc4OCBMNS40NzcxIC0xMy4xNjYzIFE1LjQ3NzEgLTEzLjEzNTEgNS40MjI0IC0xMy4wODA0IFE1LjM2NzcgLTEzLjAyNTcgNS4zMjA4IC0xMy4wMjU3IEw1LjE4MDIgLTEzLjAyNTcgUTUuMDA4MyAtMTMuMDI1NyA1LjAwODMgLTEzLjIyODggUTUuMTAyMSAtMTQuMDEwMSA1LjEwMjEgLTE0LjM4NTEgUTUuMTAyMSAtMTUuMDI1NyA0Ljg4MzMgLTE1LjM4NTEgUTQuNjY0NiAtMTUuNzQ0NCA0LjMwNTIgLTE1LjkwMDcgUTMuOTQ1OCAtMTYuMDU2OSAzLjUwMDUgLTE2LjA5NiBRMy4wNTUyIC0xNi4xMzUxIDIuMzM2NSAtMTYuMTM1MSBMMC41MjQgLTE2LjEzNTEgUTAuMDg2NSAtMTYuMTM1MSAtMC4wNTQyIC0xNi4wNTY5IFEtMC4xOTQ4IC0xNS45Nzg4IC0wLjMxOTggLTE1LjU4ODIgTC0xLjI3MjkgLTExLjcxMzIgTC0wLjAyMjkgLTExLjcxMzIgUTAuNzg5NiAtMTEuNzEzMiAxLjIwMzcgLTExLjgzMDQgUTEuNjE3NyAtMTEuOTQ3NiAxLjg1OTkgLTEyLjMwNjkgUTIuMTAyMSAtMTIuNjY2MyAyLjI4OTYgLTEzLjQ0NzYgUTIuMzA1MiAtMTMuNDk0NCAyLjM1MjEgLTEzLjU0MTMgUTIuMzk5IC0xMy41ODgyIDIuNDQ1OCAtMTMuNTg4MiBMMi42MDIxIC0xMy41ODgyIFEyLjc1ODMgLTEzLjU4ODIgMi43NTgzIC0xMy4zODUxIEwxLjc1ODMgLTkuNDMxOSBRMS43MjcxIC05LjI5MTMgMS42MDIxIC05LjI5MTMgTDEuNDYxNSAtOS4yOTEzIFExLjMwNTIgLTkuMjkxMyAxLjMwNTIgLTkuNDk0NCBRMS40NjE1IC0xMC4xMzUxIDEuNDYxNSAtMTAuNDMxOSBRMS40NjE1IC0xMC45MDA3IDEuMDM5NiAtMTEuMDI1NyBRMC42MTc3IC0xMS4xNTA3IC0wLjA4NTQgLTExLjE1MDcgTC0xLjQxMzUgLTExLjE1MDcgTC0yLjUwNzMgLTYuODA2OSBRLTIuNTY5OCAtNi42MDM4IC0yLjU2OTggLTYuNDQ3NiBRLTIuNTY5OCAtNi4zMjI2IC0yLjAyMjkgLTYuMzIyNiBMLTAuMDg1NCAtNi4zMjI2IFExLjA3MDggLTYuMzIyNiAxLjc4OTYgLTYuNTAyMiBRMi41MDgzIC02LjY4MTkgMi45NzcxIC03LjA4MDQgUTMuNDQ1OCAtNy40Nzg4IDMuNzg5NiAtOC4wODgyIFE0LjEzMzMgLTguNjk3NiA0LjYzMzMgLTkuODUzOCBRNC42NjQ2IC05Ljk2MzIgNC43NzQgLTkuOTYzMiBMNC45MTQ2IC05Ljk2MzIgUTQuOTc3MSAtOS45NjMyIDUuMDI0IC05LjkwODUgUTUuMDcwOCAtOS44NTM4IDUuMDcwOCAtOS43NzU3IFE1LjA3MDggLTkuNzQ0NCA1LjA1NTIgLTkuNzEzMiBMMy40MTQ2IC01Ljg1MzggUTMuMzgzMyAtNS43NjAxIDMuMjg5NiAtNS43NjAxIEwtNS42MTY3IC01Ljc2MDEgWiINCiAgICAvPjwvZw0KICAgID48ZyB0cmFuc2Zvcm09InRyYW5zbGF0ZSgyOTAuMDAwMywyOCkiIHN0eWxlPSJmb250LXNpemU6MTZweDsgdGV4dC1yZW5kZXJpbmc6Z2VvbWV0cmljUHJlY2lzaW9uOyBjb2xvci1yZW5kZXJpbmc6b3B0aW1pemVRdWFsaXR5OyBpbWFnZS1yZW5kZXJpbmc6b3B0aW1pemVRdWFsaXR5OyBmb250LWZhbWlseTonbXdhX2NtcjEwJzsgY29sb3ItaW50ZXJwb2xhdGlvbjpsaW5lYXJSR0I7Ig0KICAgID48cGF0aCBzdHlsZT0ic3Ryb2tlOm5vbmU7IiBkPSJNLTYzLjM4OSAtNS43NjAxIEwtNjMuMzg5IC02LjMyMjYgUS02MS43NDg0IC02LjMyMjYgLTYxLjc0ODQgLTYuODM4MiBMLTYxLjc0ODQgLTE1LjYxOTQgUS02MS43NDg0IC0xNi4xMzUxIC02My4zODkgLTE2LjEzNTEgTC02My4zODkgLTE2LjY5NzYgTC01NC4zNDIxIC0xNi42OTc2IEwtNTMuOTA0NiAtMTMuMDI1NyBMLTU0LjM1NzggLTEzLjAyNTcgUS01NC41Mjk2IC0xNC40MTYzIC01NC44NDIxIC0xNS4wNDEzIFEtNTUuMTU0NiAtMTUuNjY2MyAtNTUuODM0MyAtMTUuOTAwNyBRLTU2LjUxNCAtMTYuMTM1MSAtNTcuODczNCAtMTYuMTM1MSBMLTU5LjQzNTkgLTE2LjEzNTEgUS01OS43MzI4IC0xNi4xMzUxIC01OS44ODkgLTE2LjExMTYgUS02MC4wNDUzIC0xNi4wODgyIC02MC4xNDY4IC0xNS45NzEgUS02MC4yNDg0IC0xNS44NTM4IC02MC4yNDg0IC0xNS42MTk0IEwtNjAuMjQ4NCAtMTEuNzEzMiBMLTU5LjA3NjUgLTExLjcxMzIgUS01OC4yNjQgLTExLjcxMzIgLTU3Ljg1NzggLTExLjg1MzggUS01Ny40NTE1IC0xMS45OTQ0IC01Ny4zMDMxIC0xMi4zNzcyIFEtNTcuMTU0NiAtMTIuNzYwMSAtNTcuMTU0NiAtMTMuNTg4MiBMLTU2LjY4NTkgLTEzLjU4ODIgTC01Ni42ODU5IC05LjI5MTMgTC01Ny4xNTQ2IC05LjI5MTMgUS01Ny4xNTQ2IC0xMC4xMDM4IC01Ny4zMDMxIC0xMC40OTQ0IFEtNTcuNDUxNSAtMTAuODg1MSAtNTcuODU3OCAtMTEuMDE3OSBRLTU4LjI2NCAtMTEuMTUwNyAtNTkuMDc2NSAtMTEuMTUwNyBMLTYwLjI0ODQgLTExLjE1MDcgTC02MC4yNDg0IC02LjgzODIgUS02MC4yNDg0IC02LjQ5NDQgLTYwLjA1MzEgLTYuNDA4NSBRLTU5Ljg1NzggLTYuMzIyNiAtNTkuNDM1OSAtNi4zMjI2IEwtNTcuNzQ4NCAtNi4zMjI2IFEtNTYuNjM5IC02LjMyMjYgLTU1Ljk1MTUgLTYuNTAyMiBRLTU1LjI2NCAtNi42ODE5IC01NC44ODkgLTcuMDg4MiBRLTU0LjUxNCAtNy40OTQ0IC01NC4zMDMxIC04LjE1MDcgUS01NC4wOTIxIC04LjgwNjkgLTUzLjkyMDMgLTkuOTYzMiBMLTUzLjQ1MTUgLTkuOTYzMiBMLTU0LjEyMzQgLTUuNzYwMSBMLTYzLjM4OSAtNS43NjAxIFoiDQogICAgICAvPjxwYXRoIHN0eWxlPSJzdHJva2U6bm9uZTsiIGQ9Ik0tNTIuNTc4MiAtNS43NjAxIEwtNTIuNTc4MiAtNi4zMjI2IFEtNTIuMDMxNCAtNi4zMjI2IC01MS42Nzk4IC02LjQwODUgUS01MS4zMjgyIC02LjQ5NDQgLTUxLjMyODIgLTYuODM4MiBMLTUxLjMyODIgLTEyLjEwMzggTC01Mi41NjI2IC0xMi4xMDM4IEwtNTIuNTYyNiAtMTIuNjY2MyBMLTUxLjMyODIgLTEyLjY2NjMgTC01MS4zMjgyIC0xNC41NzI2IFEtNTEuMzI4MiAtMTUuMTgxOSAtNTAuOTkyMyAtMTUuNjUwNyBRLTUwLjY1NjQgLTE2LjExOTQgLTUwLjEyNTEgLTE2LjQyNDEgUS00OS41OTM5IC0xNi43Mjg4IC00OC45NzY3IC0xNi44ODUxIFEtNDguMzU5NSAtMTcuMDQxMyAtNDcuNzk3IC0xNy4wNDEzIFEtNDcuMjk3IC0xNy4wNDEzIC00Ni44MjgyIC0xNi44NzcyIFEtNDYuMzU5NSAtMTYuNzEzMiAtNDYuMDkzOSAtMTYuMzUzOCBRLTQ1LjM0MzkgLTE3LjA0MTMgLTQ0LjI5NyAtMTcuMDQxMyBRLTQzLjc1MDEgLTE3LjA0MTMgLTQzLjMyMDQgLTE2LjcyMSBRLTQyLjg5MDcgLTE2LjQwMDcgLTQyLjg5MDcgLTE1Ljg2OTQgUS00Mi44OTA3IC0xNS41NzI2IC00My4wOTM5IC0xNS4zNjE2IFEtNDMuMjk3IC0xNS4xNTA3IC00My42MDk1IC0xNS4xNTA3IFEtNDMuOTA2NCAtMTUuMTUwNyAtNDQuMTI1MSAtMTUuMzYxNiBRLTQ0LjM0MzkgLTE1LjU3MjYgLTQ0LjM0MzkgLTE1Ljg2OTQgUS00NC4zNDM5IC0xNi4zNjk0IC00My45MDY0IC0xNi41NDEzIFEtNDQuMTcyIC0xNi42MzUxIC00NC4zNzUxIC0xNi42MzUxIFEtNDQuODQzOSAtMTYuNjM1MSAtNDUuMTc5OCAtMTYuMzA2OSBRLTQ1LjUxNTcgLTE1Ljk3ODggLTQ1LjY3OTggLTE1LjQ5NDQgUS00NS44NDM5IC0xNS4wMTAxIC00NS44NDM5IC0xNC41NDEzIEwtNDUuODQzOSAtMTIuNjY2MyBMLTQzLjk4NDUgLTEyLjY2NjMgTC00My45ODQ1IC0xMi4xMDM4IEwtNDUuNzk3IC0xMi4xMDM4IEwtNDUuNzk3IC02LjgzODIgUS00NS43OTcgLTYuNTEwMSAtNDUuMzI4MiAtNi40MTYzIFEtNDQuODU5NSAtNi4zMjI2IC00NC4yNTAxIC02LjMyMjYgTC00NC4yNTAxIC01Ljc2MDEgTC00OC4xNzIgLTUuNzYwMSBMLTQ4LjE3MiAtNi4zMjI2IFEtNDcuNjI1MSAtNi4zMjI2IC00Ny4yNzM1IC02LjQwODUgUS00Ni45MjIgLTYuNDk0NCAtNDYuOTIyIC02LjgzODIgTC00Ni45MjIgLTEyLjEwMzggTC01MC4yMTg5IC0xMi4xMDM4IEwtNTAuMjE4OSAtNi44MzgyIFEtNTAuMjE4OSAtNi40OTQ0IC00OS44NTk1IC02LjQwODUgUS00OS41MDAxIC02LjMyMjYgLTQ4Ljk2ODkgLTYuMzIyNiBMLTQ4Ljk2ODkgLTUuNzYwMSBMLTUyLjU3ODIgLTUuNzYwMSBaTS01MC4yNjU3IC0xMi42NjYzIEwtNDYuOTIyIC0xMi42NjYzIEwtNDYuOTIyIC0xNC41NzI2IFEtNDYuOTIyIC0xNC43MTMyIC00Ni44OTA3IC0xNC45Nzg4IFEtNDcuMzEyNiAtMTUuMTgxOSAtNDcuMzEyNiAtMTUuNjUwNyBRLTQ3LjMxMjYgLTE1LjkxNjMgLTQ3LjE2NDIgLTE2LjEwMzggUS00Ny4wMTU3IC0xNi4yOTEzIC00Ni43NjU3IC0xNi4zNTM4IFEtNDcuMjE4OSAtMTYuNjM1MSAtNDcuOTIyIC0xNi42MzUxIFEtNDguNTE1NyAtMTYuNjM1MSAtNDkuMDU0OCAtMTYuMzYxNiBRLTQ5LjU5MzkgLTE2LjA4ODIgLTQ5LjkyOTggLTE1LjYxMTYgUS01MC4yNjU3IC0xNS4xMzUxIC01MC4yNjU3IC0xNC41NDEzIEwtNTAuMjY1NyAtMTIuNjY2MyBaIg0KICAgICAgLz48cGF0aCBzdHlsZT0ic3Ryb2tlOm5vbmU7IiBkPSJNLTM5LjY4MjQgLTUuNTcyNiBRLTQwLjY1MTEgLTUuNTcyNiAtNDEuNDcxNCAtNi4wODgyIFEtNDIuMjkxNyAtNi42MDM4IC00Mi43NTI3IC03LjQ2MzIgUS00My4yMTM2IC04LjMyMjYgLTQzLjIxMzYgLTkuMjc1NyBRLTQzLjIxMzYgLTEwLjIxMzIgLTQyLjc5MTcgLTExLjA1NjkgUS00Mi4zNjk5IC0xMS45MDA3IC00MS42MDQyIC0xMi40MTYzIFEtNDAuODM4NiAtMTIuOTMxOSAtMzkuOTAxMSAtMTIuOTMxOSBRLTM5LjE2NjcgLTEyLjkzMTkgLTM4LjYyNzcgLTEyLjY4OTcgUS0zOC4wODg2IC0xMi40NDc2IC0zNy43MzcgLTEyLjAxMDEgUS0zNy4zODU1IC0xMS41NzI2IC0zNy4yMDU4IC0xMC45Nzg4IFEtMzcuMDI2MSAtMTAuMzg1MSAtMzcuMDI2MSAtOS42NjYzIFEtMzcuMDI2MSAtOS40NjMyIC0zNy4xODI0IC05LjQ2MzIgTC00MS44MjMgLTkuNDYzMiBMLTQxLjgyMyAtOS4yOTEzIFEtNDEuODIzIC03Ljk2MzIgLTQxLjI4MzkgLTcuMDEwMSBRLTQwLjc0NDkgLTYuMDU2OSAtMzkuNTQxNyAtNi4wNTY5IFEtMzkuMDQxNyAtNi4wNTY5IC0zOC42Mjc3IC02LjI3NTcgUS0zOC4yMTM2IC02LjQ5NDQgLTM3LjkwMTEgLTYuODg1MSBRLTM3LjU4ODYgLTcuMjc1NyAtMzcuNDc5MiAtNy43MTMyIFEtMzcuNDYzNiAtNy43NzU3IC0zNy40MjQ1IC03LjgxNDcgUS0zNy4zODU1IC03Ljg1MzggLTM3LjMyMyAtNy44NTM4IEwtMzcuMTgyNCAtNy44NTM4IFEtMzcuMDI2MSAtNy44NTM4IC0zNy4wMjYxIC03LjY1MDcgUS0zNy4yNDQ5IC02Ljc0NDQgLTM3Ljk5NDkgLTYuMTU4NSBRLTM4Ljc0NDkgLTUuNTcyNiAtMzkuNjgyNCAtNS41NzI2IFpNLTQxLjgwNzQgLTkuODUzOCBMLTM4LjE1MTEgLTkuODUzOCBRLTM4LjE1MTEgLTEwLjQ2MzIgLTM4LjMyMyAtMTEuMDgwNCBRLTM4LjQ5NDkgLTExLjY5NzYgLTM4Ljg4NTUgLTEyLjEwMzggUS0zOS4yNzYxIC0xMi41MTAxIC0zOS45MDExIC0xMi41MTAxIFEtNDAuODA3NCAtMTIuNTEwMSAtNDEuMzA3NCAtMTEuNjY2MyBRLTQxLjgwNzQgLTEwLjgyMjYgLTQxLjgwNzQgLTkuODUzOCBaIg0KICAgICAgLz48cGF0aCBzdHlsZT0ic3Ryb2tlOm5vbmU7IiBkPSJNLTMyLjU3MTIgLTUuNTcyNiBRLTMzLjU0IC01LjU3MjYgLTM0LjMyOTEgLTYuMDgwNCBRLTM1LjExODEgLTYuNTg4MiAtMzUuNTcxMiAtNy40MzE5IFEtMzYuMDI0NCAtOC4yNzU3IC0zNi4wMjQ0IC05LjIxMzIgUS0zNi4wMjQ0IC0xMC4xNjYzIC0zNS41NzEyIC0xMS4wMzM1IFEtMzUuMTE4MSAtMTEuOTAwNyAtMzQuMzI5MSAtMTIuNDE2MyBRLTMzLjU0IC0xMi45MzE5IC0zMi41NzEyIC0xMi45MzE5IFEtMzEuNjMzNyAtMTIuOTMxOSAtMzAuODYwMyAtMTIuNTY0NyBRLTMwLjA4NjkgLTEyLjE5NzYgLTMwLjA4NjkgLTExLjM2OTQgUS0zMC4wODY5IC0xMS4wNTY5IC0zMC4zMTM0IC0xMC44MjI2IFEtMzAuNTQgLTEwLjU4ODIgLTMwLjg1MjUgLTEwLjU4ODIgUS0zMS4xODA2IC0xMC41ODgyIC0zMS4zOTk0IC0xMC44MjI2IFEtMzEuNjE4MSAtMTEuMDU2OSAtMzEuNjE4MSAtMTEuMzY5NCBRLTMxLjYxODEgLTExLjY1MDcgLTMxLjQzODQgLTExLjg1MzggUS0zMS4yNTg3IC0xMi4wNTY5IC0zMC45OTMxIC0xMi4xMTk0IFEtMzEuNTU1NiAtMTIuNDYzMiAtMzIuNTU1NiAtMTIuNDYzMiBRLTMzLjMyMTIgLTEyLjQ2MzIgLTMzLjc5IC0xMS45NTU0IFEtMzQuMjU4NyAtMTEuNDQ3NiAtMzQuNDQ2MiAtMTAuNjk3NiBRLTM0LjYzMzcgLTkuOTQ3NiAtMzQuNjMzNyAtOS4yMTMyIFEtMzQuNjMzNyAtOC40NDc2IC0zNC4zOTk0IC03LjcyMSBRLTM0LjE2NSAtNi45OTQ0IC0zMy42NTcyIC02LjUyNTcgUS0zMy4xNDk0IC02LjA1NjkgLTMyLjM2ODEgLTYuMDU2OSBRLTMxLjYxODEgLTYuMDU2OSAtMzEuMDg2OSAtNi41MTc5IFEtMzAuNTU1NiAtNi45Nzg4IC0zMC4zNTI1IC03LjcyODggUS0zMC4zNTI1IC03LjgyMjYgLTMwLjIyNzUgLTcuODIyNiBMLTMwLjA0IC03LjgyMjYgUS0yOS45OTMxIC03LjgyMjYgLTI5Ljk1NDEgLTcuNzgzNSBRLTI5LjkxNSAtNy43NDQ0IC0yOS45MTUgLTcuNjgxOSBMLTI5LjkxNSAtNy42MzUxIFEtMzAuMTQ5NCAtNi42OTc2IC0zMC44NjgxIC02LjEzNTEgUS0zMS41ODY5IC01LjU3MjYgLTMyLjU3MTIgLTUuNTcyNiBaIg0KICAgICAgLz48cGF0aCBzdHlsZT0ic3Ryb2tlOm5vbmU7IiBkPSJNLTI3LjgwMzkgLTcuNjgxOSBMLTI3LjgwMzkgLTEyLjEwMzggTC0yOS4xMzIgLTEyLjEwMzggTC0yOS4xMzIgLTEyLjUxMDEgUS0yOC4wODUxIC0xMi41MTAxIC0yNy41OTI5IC0xMy40ODY2IFEtMjcuMTAwOCAtMTQuNDYzMiAtMjcuMTAwOCAtMTUuNjAzOCBMLTI2LjY0NzYgLTE1LjYwMzggTC0yNi42NDc2IC0xMi42NjYzIEwtMjQuMzgyIC0xMi42NjYzIEwtMjQuMzgyIC0xMi4xMDM4IEwtMjYuNjQ3NiAtMTIuMTAzOCBMLTI2LjY0NzYgLTcuNzEzMiBRLTI2LjY0NzYgLTcuMDU2OSAtMjYuNDIxMSAtNi41NTY5IFEtMjYuMTk0NSAtNi4wNTY5IC0yNS42MTY0IC02LjA1NjkgUS0yNS4wNjk1IC02LjA1NjkgLTI0LjgyNzMgLTYuNTgwNCBRLTI0LjU4NTEgLTcuMTAzOCAtMjQuNTg1MSAtNy43MTMyIEwtMjQuNTg1MSAtOC42NjYzIEwtMjQuMTMyIC04LjY2NjMgTC0yNC4xMzIgLTcuNjgxOSBRLTI0LjEzMiAtNy4xODE5IC0yNC4zMTE3IC02LjY5NzYgUS0yNC40OTE0IC02LjIxMzIgLTI0Ljg1MDggLTUuODkyOSBRLTI1LjIxMDEgLTUuNTcyNiAtMjUuNzI1OCAtNS41NzI2IFEtMjYuNjk0NSAtNS41NzI2IC0yNy4yNDkyIC02LjE1MDcgUS0yNy44MDM5IC02LjcyODggLTI3LjgwMzkgLTcuNjgxOSBaIg0KICAgICAgLz48cGF0aCBzdHlsZT0ic3Ryb2tlOm5vbmU7IiBkPSJNLTIyLjcyMjMgLTUuNzYwMSBMLTIyLjcyMjMgLTYuMzIyNiBRLTIyLjE3NTQgLTYuMzIyNiAtMjEuODIzOCAtNi40MDg1IFEtMjEuNDcyMyAtNi40OTQ0IC0yMS40NzIzIC02LjgzODIgTC0yMS40NzIzIC0xMS4xOTc2IFEtMjEuNDcyMyAtMTEuODIyNiAtMjEuNzE0NSAtMTEuOTYzMiBRLTIxLjk1NjYgLTEyLjEwMzggLTIyLjY1OTggLTEyLjEwMzggTC0yMi42NTk4IC0xMi42NjYzIEwtMjAuMzQ3MyAtMTIuODM4MiBMLTIwLjM0NzMgLTYuODM4MiBRLTIwLjM0NzMgLTYuNDk0NCAtMjAuMDQyNiAtNi40MDg1IFEtMTkuNzM3OSAtNi4zMjI2IC0xOS4yMzc5IC02LjMyMjYgTC0xOS4yMzc5IC01Ljc2MDEgTC0yMi43MjIzIC01Ljc2MDEgWk0tMjIuMDUwNCAtMTUuNTg4MiBRLTIyLjA1MDQgLTE1LjkzMTkgLTIxLjc4NDggLTE2LjE5NzYgUS0yMS41MTkxIC0xNi40NjMyIC0yMS4xNzU0IC0xNi40NjMyIFEtMjAuOTQxIC0xNi40NjMyIC0yMC43MzAxIC0xNi4zNDYgUS0yMC41MTkxIC0xNi4yMjg4IC0yMC40MDIgLTE2LjAxNzkgUS0yMC4yODQ4IC0xNS44MDY5IC0yMC4yODQ4IC0xNS41ODgyIFEtMjAuMjg0OCAtMTUuMjQ0NCAtMjAuNTUwNCAtMTQuOTc4OCBRLTIwLjgxNiAtMTQuNzEzMiAtMjEuMTc1NCAtMTQuNzEzMiBRLTIxLjUxOTEgLTE0LjcxMzIgLTIxLjc4NDggLTE0Ljk3ODggUS0yMi4wNTA0IC0xNS4yNDQ0IC0yMi4wNTA0IC0xNS41ODgyIFoiDQogICAgICAvPjxwYXRoIHN0eWxlPSJzdHJva2U6bm9uZTsiIGQ9Ik0tMTQuODcxNiAtNS43NjAxIEwtMTcuMTk5NyAtMTEuNjM1MSBRLTE3LjM1NTkgLTExLjkzMTkgLTE3LjY2MDYgLTEyLjAxNzkgUS0xNy45NjUzIC0xMi4xMDM4IC0xOC40NjUzIC0xMi4xMDM4IEwtMTguNDY1MyAtMTIuNjY2MyBMLTE1LjEwNTkgLTEyLjY2NjMgTC0xNS4xMDU5IC0xMi4xMDM4IFEtMTYuMDEyMiAtMTIuMTAzOCAtMTYuMDEyMiAtMTEuNzEzMiBRLTE2LjAxMjIgLTExLjY1MDcgLTE1Ljk5NjYgLTExLjYxOTQgTC0xNC4xOTk3IC03LjEwMzggTC0xMi41NzQ3IC0xMS4xODE5IFEtMTIuNTI3OCAtMTEuMzA2OSAtMTIuNTI3OCAtMTEuNDQ3NiBRLTEyLjUyNzggLTExLjc0NDQgLTEyLjc2MjIgLTExLjkyNDEgUS0xMi45OTY2IC0xMi4xMDM4IC0xMy4zMDkxIC0xMi4xMDM4IEwtMTMuMzA5MSAtMTIuNjY2MyBMLTEwLjY1MjggLTEyLjY2NjMgTC0xMC42NTI4IC0xMi4xMDM4IFEtMTEuMTM3MiAtMTIuMTAzOCAtMTEuNTEyMiAtMTEuODc3MiBRLTExLjg4NzIgLTExLjY1MDcgLTEyLjA5MDMgLTExLjE5NzYgTC0xNC4yNDY2IC01Ljc2MDEgUS0xNC4zMDkxIC01LjU3MjYgLTE0LjQ5NjYgLTUuNTcyNiBMLTE0LjYyMTYgLTUuNTcyNiBRLTE0LjgwOTEgLTUuNTcyNiAtMTQuODcxNiAtNS43NjAxIFoiDQogICAgICAvPjxwYXRoIHN0eWxlPSJzdHJva2U6bm9uZTsiIGQ9Ik0tNi43OTM0IC01LjU3MjYgUS03Ljc2MjIgLTUuNTcyNiAtOC41ODI1IC02LjA4ODIgUS05LjQwMjggLTYuNjAzOCAtOS44NjM3IC03LjQ2MzIgUS0xMC4zMjQ3IC04LjMyMjYgLTEwLjMyNDcgLTkuMjc1NyBRLTEwLjMyNDcgLTEwLjIxMzIgLTkuOTAyOCAtMTEuMDU2OSBRLTkuNDgwOSAtMTEuOTAwNyAtOC43MTUzIC0xMi40MTYzIFEtNy45NDk3IC0xMi45MzE5IC03LjAxMjIgLTEyLjkzMTkgUS02LjI3NzggLTEyLjkzMTkgLTUuNzM4NyAtMTIuNjg5NyBRLTUuMTk5NyAtMTIuNDQ3NiAtNC44NDgxIC0xMi4wMTAxIFEtNC40OTY1IC0xMS41NzI2IC00LjMxNjggLTEwLjk3ODggUS00LjEzNzIgLTEwLjM4NTEgLTQuMTM3MiAtOS42NjYzIFEtNC4xMzcyIC05LjQ2MzIgLTQuMjkzNCAtOS40NjMyIEwtOC45MzQgLTkuNDYzMiBMLTguOTM0IC05LjI5MTMgUS04LjkzNCAtNy45NjMyIC04LjM5NSAtNy4wMTAxIFEtNy44NTU5IC02LjA1NjkgLTYuNjUyOCAtNi4wNTY5IFEtNi4xNTI4IC02LjA1NjkgLTUuNzM4NyAtNi4yNzU3IFEtNS4zMjQ3IC02LjQ5NDQgLTUuMDEyMiAtNi44ODUxIFEtNC42OTk3IC03LjI3NTcgLTQuNTkwMyAtNy43MTMyIFEtNC41NzQ3IC03Ljc3NTcgLTQuNTM1NiAtNy44MTQ3IFEtNC40OTY1IC03Ljg1MzggLTQuNDM0IC03Ljg1MzggTC00LjI5MzQgLTcuODUzOCBRLTQuMTM3MiAtNy44NTM4IC00LjEzNzIgLTcuNjUwNyBRLTQuMzU1OSAtNi43NDQ0IC01LjEwNTkgLTYuMTU4NSBRLTUuODU1OSAtNS41NzI2IC02Ljc5MzQgLTUuNTcyNiBaTS04LjkxODQgLTkuODUzOCBMLTUuMjYyMiAtOS44NTM4IFEtNS4yNjIyIC0xMC40NjMyIC01LjQzNCAtMTEuMDgwNCBRLTUuNjA1OSAtMTEuNjk3NiAtNS45OTY1IC0xMi4xMDM4IFEtNi4zODcyIC0xMi41MTAxIC03LjAxMjIgLTEyLjUxMDEgUS03LjkxODQgLTEyLjUxMDEgLTguNDE4NCAtMTEuNjY2MyBRLTguOTE4NCAtMTAuODIyNiAtOC45MTg0IC05Ljg1MzggWiINCiAgICAgIC8+PHBhdGggc3R5bGU9InN0cm9rZTpub25lOyIgZD0iTTIuMDg4NSAtMi42NTA3IEwyLjA4ODUgLTMuMjEzMiBRMi42MzU0IC0zLjIxMzIgMi45ODcgLTMuMzA2OSBRMy4zMzg1IC0zLjQwMDcgMy4zMzg1IC0zLjcyODggTDMuMzM4NSAtMTEuNDQ3NiBRMy4zMzg1IC0xMS44ODUxIDMuMDI2IC0xMS45OTQ0IFEyLjcxMzUgLTEyLjEwMzggMi4wODg1IC0xMi4xMDM4IEwyLjA4ODUgLTEyLjY2NjMgTDQuNDQ3OSAtMTIuODM4MiBMNC40NDc5IC0xMS44MzgyIFE0Ljg4NTQgLTEyLjMyMjYgNS40NzEzIC0xMi41ODA0IFE2LjA1NzMgLTEyLjgzODIgNi43MTM1IC0xMi44MzgyIFE3LjY1MSAtMTIuODM4MiA4LjQwODggLTEyLjMyMjYgUTkuMTY2NyAtMTEuODA2OSA5LjU5NjMgLTEwLjk3ODggUTEwLjAyNiAtMTAuMTUwNyAxMC4wMjYgLTkuMjEzMiBRMTAuMDI2IC04LjI0NDQgOS41NDk1IC03LjQwODUgUTkuMDcyOSAtNi41NzI2IDguMjYwNCAtNi4wNzI2IFE3LjQ0NzkgLTUuNTcyNiA2LjQ2MzUgLTUuNTcyNiBRNS4zMDczIC01LjU3MjYgNC40OTQ4IC02LjUyNTcgTDQuNDk0OCAtMy43Mjg4IFE0LjQ5NDggLTMuNDAwNyA0Ljg1NDIgLTMuMzA2OSBRNS4yMTM1IC0zLjIxMzIgNS43NDQ4IC0zLjIxMzIgTDUuNzQ0OCAtMi42NTA3IEwyLjA4ODUgLTIuNjUwNyBaTTQuNDk0OCAtNy4zMjI2IFE0Ljc3NiAtNi43NDQ0IDUuMjc2IC02LjM3NzIgUTUuNzc2IC02LjAxMDEgNi4zNjk4IC02LjAxMDEgUTYuOTMyMyAtNi4wMTAxIDcuMzU0MiAtNi4zMDY5IFE3Ljc3NiAtNi42MDM4IDguMDY1MSAtNy4xMDM4IFE4LjM1NDIgLTcuNjAzOCA4LjQ5NDggLTguMTUwNyBROC42MzU0IC04LjY5NzYgOC42MzU0IC05LjIxMzIgUTguNjM1NCAtOS44NTM4IDguNDAxIC0xMC42MDM4IFE4LjE2NjcgLTExLjM1MzggNy42OTc5IC0xMS44NjE2IFE3LjIyOTIgLTEyLjM2OTQgNi41NTczIC0xMi4zNjk0IFE1LjkwMSAtMTIuMzY5NCA1LjM2MiAtMTIuMDQxMyBRNC44MjI5IC0xMS43MTMyIDQuNDk0OCAtMTEuMTM1MSBMNC40OTQ4IC03LjMyMjYgWiINCiAgICAgIC8+PHBhdGggc3R5bGU9InN0cm9rZTpub25lOyIgZD0iTTE1IC01LjU3MjYgUTE0LjA0NjkgLTUuNTcyNiAxMy4yMjY2IC02LjA2NDcgUTEyLjQwNjMgLTYuNTU2OSAxMS45Mjk3IC03LjM3NzIgUTExLjQ1MzIgLTguMTk3NiAxMS40NTMyIC05LjE2NjMgUTExLjQ1MzIgLTkuOTAwNyAxMS43MTEgLTEwLjU4MDQgUTExLjk2ODggLTExLjI2MDEgMTIuNDYxIC0xMS43OTkxIFExMi45NTMyIC0xMi4zMzgyIDEzLjYwMTYgLTEyLjYzNTEgUTE0LjI1IC0xMi45MzE5IDE1IC0xMi45MzE5IFExNS45ODQ0IC0xMi45MzE5IDE2Ljc5NjkgLTEyLjQxNjMgUTE3LjYwOTQgLTExLjkwMDcgMTguMDc4MiAtMTEuMDI1NyBRMTguNTQ2OSAtMTAuMTUwNyAxOC41NDY5IC05LjE2NjMgUTE4LjU0NjkgLTguMjEzMiAxOC4wNzAzIC03LjM4NTEgUTE3LjU5MzggLTYuNTU2OSAxNi43NzM1IC02LjA2NDcgUTE1Ljk1MzIgLTUuNTcyNiAxNSAtNS41NzI2IFpNMTUgLTYuMDU2OSBRMTYuMjgxMyAtNi4wNTY5IDE2LjcxMSAtNi45ODY2IFExNy4xNDA3IC03LjkxNjMgMTcuMTQwNyAtOS4zNTM4IFExNy4xNDA3IC0xMC4xNTA3IDE3LjA1NDcgLTEwLjY4MTkgUTE2Ljk2ODggLTExLjIxMzIgMTYuNjg3NSAtMTEuNjM1MSBRMTYuNSAtMTEuOTAwNyAxNi4yMjY2IC0xMi4xMDM4IFExNS45NTMyIC0xMi4zMDY5IDE1LjY0MDcgLTEyLjQwODUgUTE1LjMyODIgLTEyLjUxMDEgMTUgLTEyLjUxMDEgUTE0LjUgLTEyLjUxMDEgMTQuMDU0NyAtMTIuMjgzNSBRMTMuNjA5NCAtMTIuMDU2OSAxMy4zMTI1IC0xMS42MzUxIFExMy4wMTU3IC0xMS4xODE5IDEyLjkyOTcgLTEwLjY0MjkgUTEyLjg0MzggLTEwLjEwMzggMTIuODQzOCAtOS4zNTM4IFExMi44NDM4IC04LjQ0NzYgMTMgLTcuNzM2NiBRMTMuMTU2MyAtNy4wMjU3IDEzLjYzMjggLTYuNTQxMyBRMTQuMTA5NCAtNi4wNTY5IDE1IC02LjA1NjkgWiINCiAgICAgIC8+PHBhdGggc3R5bGU9InN0cm9rZTpub25lOyIgZD0iTTIwLjY0MDcgLTcuNjgxOSBMMjAuNjQwNyAtMTIuMTAzOCBMMTkuMzEyNSAtMTIuMTAzOCBMMTkuMzEyNSAtMTIuNTEwMSBRMjAuMzU5NCAtMTIuNTEwMSAyMC44NTE2IC0xMy40ODY2IFEyMS4zNDM4IC0xNC40NjMyIDIxLjM0MzggLTE1LjYwMzggTDIxLjc5NjkgLTE1LjYwMzggTDIxLjc5NjkgLTEyLjY2NjMgTDI0LjA2MjUgLTEyLjY2NjMgTDI0LjA2MjUgLTEyLjEwMzggTDIxLjc5NjkgLTEyLjEwMzggTDIxLjc5NjkgLTcuNzEzMiBRMjEuNzk2OSAtNy4wNTY5IDIyLjAyMzUgLTYuNTU2OSBRMjIuMjUgLTYuMDU2OSAyMi44MjgyIC02LjA1NjkgUTIzLjM3NSAtNi4wNTY5IDIzLjYxNzIgLTYuNTgwNCBRMjMuODU5NCAtNy4xMDM4IDIzLjg1OTQgLTcuNzEzMiBMMjMuODU5NCAtOC42NjYzIEwyNC4zMTI1IC04LjY2NjMgTDI0LjMxMjUgLTcuNjgxOSBRMjQuMzEyNSAtNy4xODE5IDI0LjEzMjkgLTYuNjk3NiBRMjMuOTUzMiAtNi4yMTMyIDIzLjU5MzggLTUuODkyOSBRMjMuMjM0NCAtNS41NzI2IDIyLjcxODggLTUuNTcyNiBRMjEuNzUgLTUuNTcyNiAyMS4xOTU0IC02LjE1MDcgUTIwLjY0MDcgLTYuNzI4OCAyMC42NDA3IC03LjY4MTkgWiINCiAgICAgIC8+PHBhdGggc3R5bGU9InN0cm9rZTpub25lOyIgZD0iTTI5LjIwNjcgLTUuNTcyNiBRMjguMjM3OSAtNS41NzI2IDI3LjQxNzYgLTYuMDg4MiBRMjYuNTk3MyAtNi42MDM4IDI2LjEzNjQgLTcuNDYzMiBRMjUuNjc1NCAtOC4zMjI2IDI1LjY3NTQgLTkuMjc1NyBRMjUuNjc1NCAtMTAuMjEzMiAyNi4wOTczIC0xMS4wNTY5IFEyNi41MTkyIC0xMS45MDA3IDI3LjI4NDggLTEyLjQxNjMgUTI4LjA1MDQgLTEyLjkzMTkgMjguOTg3OSAtMTIuOTMxOSBRMjkuNzIyMyAtMTIuOTMxOSAzMC4yNjE0IC0xMi42ODk3IFEzMC44MDA0IC0xMi40NDc2IDMxLjE1MiAtMTIuMDEwMSBRMzEuNTAzNSAtMTEuNTcyNiAzMS42ODMyIC0xMC45Nzg4IFEzMS44NjI5IC0xMC4zODUxIDMxLjg2MjkgLTkuNjY2MyBRMzEuODYyOSAtOS40NjMyIDMxLjcwNjcgLTkuNDYzMiBMMjcuMDY2IC05LjQ2MzIgTDI3LjA2NiAtOS4yOTEzIFEyNy4wNjYgLTcuOTYzMiAyNy42MDUxIC03LjAxMDEgUTI4LjE0NDIgLTYuMDU2OSAyOS4zNDczIC02LjA1NjkgUTI5Ljg0NzMgLTYuMDU2OSAzMC4yNjE0IC02LjI3NTcgUTMwLjY3NTQgLTYuNDk0NCAzMC45ODc5IC02Ljg4NTEgUTMxLjMwMDQgLTcuMjc1NyAzMS40MDk4IC03LjcxMzIgUTMxLjQyNTQgLTcuNzc1NyAzMS40NjQ1IC03LjgxNDcgUTMxLjUwMzUgLTcuODUzOCAzMS41NjYgLTcuODUzOCBMMzEuNzA2NyAtNy44NTM4IFEzMS44NjI5IC03Ljg1MzggMzEuODYyOSAtNy42NTA3IFEzMS42NDQyIC02Ljc0NDQgMzAuODk0MiAtNi4xNTg1IFEzMC4xNDQyIC01LjU3MjYgMjkuMjA2NyAtNS41NzI2IFpNMjcuMDgxNyAtOS44NTM4IEwzMC43Mzc5IC05Ljg1MzggUTMwLjczNzkgLTEwLjQ2MzIgMzAuNTY2IC0xMS4wODA0IFEzMC4zOTQyIC0xMS42OTc2IDMwLjAwMzUgLTEyLjEwMzggUTI5LjYxMjkgLTEyLjUxMDEgMjguOTg3OSAtMTIuNTEwMSBRMjguMDgxNyAtMTIuNTEwMSAyNy41ODE3IC0xMS42NjYzIFEyNy4wODE3IC0xMC44MjI2IDI3LjA4MTcgLTkuODUzOCBaIg0KICAgICAgLz48cGF0aCBzdHlsZT0ic3Ryb2tlOm5vbmU7IiBkPSJNMzIuODE3OCAtNS43NjAxIEwzMi44MTc4IC02LjMyMjYgUTMzLjM2NDcgLTYuMzIyNiAzMy43MTYyIC02LjQwODUgUTM0LjA2NzggLTYuNDk0NCAzNC4wNjc4IC02LjgzODIgTDM0LjA2NzggLTExLjE5NzYgUTM0LjA2NzggLTExLjYzNTEgMzMuOTM1IC0xMS44MjI2IFEzMy44MDIyIC0xMi4wMTAxIDMzLjU2IC0xMi4wNTY5IFEzMy4zMTc4IC0xMi4xMDM4IDMyLjgxNzggLTEyLjEwMzggTDMyLjgxNzggLTEyLjY2NjMgTDM1LjEzMDMgLTEyLjgzODIgTDM1LjEzMDMgLTExLjI3NTcgUTM1LjQ1ODQgLTExLjk2MzIgMzYuMDgzNCAtMTIuNDAwNyBRMzYuNzA4NCAtMTIuODM4MiAzNy40NTg0IC0xMi44MzgyIFEzOC41Njc4IC0xMi44MzgyIDM5LjEyMjUgLTEyLjMwNjkgUTM5LjY3NzIgLTExLjc3NTcgMzkuNjc3MiAtMTAuNjgxOSBMMzkuNjc3MiAtNi44MzgyIFEzOS42NzcyIC02LjQ5NDQgNDAuMDI4NyAtNi40MDg1IFE0MC4zODAzIC02LjMyMjYgNDAuOTI3MiAtNi4zMjI2IEw0MC45MjcyIC01Ljc2MDEgTDM3LjI3MDkgLTUuNzYwMSBMMzcuMjcwOSAtNi4zMjI2IFEzNy44MTc4IC02LjMyMjYgMzguMTY5MyAtNi40MDg1IFEzOC41MjA5IC02LjQ5NDQgMzguNTIwOSAtNi44MzgyIEwzOC41MjA5IC0xMC42MzUxIFEzOC41MjA5IC0xMS40MTYzIDM4LjI5NDMgLTExLjkxNjMgUTM4LjA2NzggLTEyLjQxNjMgMzcuMzY0NyAtMTIuNDE2MyBRMzYuNDI3MiAtMTIuNDE2MyAzNS44MzM0IC0xMS42NzQxIFEzNS4yMzk3IC0xMC45MzE5IDM1LjIzOTcgLTkuOTk0NCBMMzUuMjM5NyAtNi44MzgyIFEzNS4yMzk3IC02LjQ5NDQgMzUuNTkxMiAtNi40MDg1IFEzNS45NDI4IC02LjMyMjYgMzYuNDc0IC02LjMyMjYgTDM2LjQ3NCAtNS43NjAxIEwzMi44MTc4IC01Ljc2MDEgWiINCiAgICAgIC8+PHBhdGggc3R5bGU9InN0cm9rZTpub25lOyIgZD0iTTQyLjQxODUgLTcuNjgxOSBMNDIuNDE4NSAtMTIuMTAzOCBMNDEuMDkwNCAtMTIuMTAzOCBMNDEuMDkwNCAtMTIuNTEwMSBRNDIuMTM3MiAtMTIuNTEwMSA0Mi42Mjk0IC0xMy40ODY2IFE0My4xMjE2IC0xNC40NjMyIDQzLjEyMTYgLTE1LjYwMzggTDQzLjU3NDcgLTE1LjYwMzggTDQzLjU3NDcgLTEyLjY2NjMgTDQ1Ljg0MDQgLTEyLjY2NjMgTDQ1Ljg0MDQgLTEyLjEwMzggTDQzLjU3NDcgLTEyLjEwMzggTDQzLjU3NDcgLTcuNzEzMiBRNDMuNTc0NyAtNy4wNTY5IDQzLjgwMTMgLTYuNTU2OSBRNDQuMDI3OSAtNi4wNTY5IDQ0LjYwNiAtNi4wNTY5IFE0NS4xNTI5IC02LjA1NjkgNDUuMzk1IC02LjU4MDQgUTQ1LjYzNzIgLTcuMTAzOCA0NS42MzcyIC03LjcxMzIgTDQ1LjYzNzIgLTguNjY2MyBMNDYuMDkwNCAtOC42NjYzIEw0Ni4wOTA0IC03LjY4MTkgUTQ2LjA5MDQgLTcuMTgxOSA0NS45MTA3IC02LjY5NzYgUTQ1LjczMSAtNi4yMTMyIDQ1LjM3MTYgLTUuODkyOSBRNDUuMDEyMiAtNS41NzI2IDQ0LjQ5NjYgLTUuNTcyNiBRNDMuNTI3OSAtNS41NzI2IDQyLjk3MzIgLTYuMTUwNyBRNDIuNDE4NSAtNi43Mjg4IDQyLjQxODUgLTcuNjgxOSBaIg0KICAgICAgLz48cGF0aCBzdHlsZT0ic3Ryb2tlOm5vbmU7IiBkPSJNNDcuNTAwMSAtNS43NjAxIEw0Ny41MDAxIC02LjMyMjYgUTQ4LjA0NyAtNi4zMjI2IDQ4LjM5ODUgLTYuNDA4NSBRNDguNzUwMSAtNi40OTQ0IDQ4Ljc1MDEgLTYuODM4MiBMNDguNzUwMSAtMTEuMTk3NiBRNDguNzUwMSAtMTEuODIyNiA0OC41MDc5IC0xMS45NjMyIFE0OC4yNjU3IC0xMi4xMDM4IDQ3LjU2MjYgLTEyLjEwMzggTDQ3LjU2MjYgLTEyLjY2NjMgTDQ5Ljg3NTEgLTEyLjgzODIgTDQ5Ljg3NTEgLTYuODM4MiBRNDkuODc1MSAtNi40OTQ0IDUwLjE3OTggLTYuNDA4NSBRNTAuNDg0NSAtNi4zMjI2IDUwLjk4NDUgLTYuMzIyNiBMNTAuOTg0NSAtNS43NjAxIEw0Ny41MDAxIC01Ljc2MDEgWk00OC4xNzIgLTE1LjU4ODIgUTQ4LjE3MiAtMTUuOTMxOSA0OC40Mzc2IC0xNi4xOTc2IFE0OC43MDMyIC0xNi40NjMyIDQ5LjA0NyAtMTYuNDYzMiBRNDkuMjgxNCAtMTYuNDYzMiA0OS40OTIzIC0xNi4zNDYgUTQ5LjcwMzIgLTE2LjIyODggNDkuODIwNCAtMTYuMDE3OSBRNDkuOTM3NiAtMTUuODA2OSA0OS45Mzc2IC0xNS41ODgyIFE0OS45Mzc2IC0xNS4yNDQ0IDQ5LjY3MiAtMTQuOTc4OCBRNDkuNDA2NCAtMTQuNzEzMiA0OS4wNDcgLTE0LjcxMzIgUTQ4LjcwMzIgLTE0LjcxMzIgNDguNDM3NiAtMTQuOTc4OCBRNDguMTcyIC0xNS4yNDQ0IDQ4LjE3MiAtMTUuNTg4MiBaIg0KICAgICAgLz48cGF0aCBzdHlsZT0ic3Ryb2tlOm5vbmU7IiBkPSJNNTIuMDg1MiAtNy4zMzgyIFE1Mi4wODUyIC04LjI5MTMgNTIuODM1MiAtOC44ODUxIFE1My41ODUyIC05LjQ3ODggNTQuNjM5OSAtOS43Mjg4IFE1NS42OTQ2IC05Ljk3ODggNTYuNjMyMSAtOS45Nzg4IEw1Ni42MzIxIC0xMC42MzUxIFE1Ni42MzIxIC0xMS4wODgyIDU2LjQyODkgLTExLjUyNTcgUTU2LjIyNTggLTExLjk2MzIgNTUuODQzIC0xMi4yMzY2IFE1NS40NjAyIC0xMi41MTAxIDU1LjAwNzEgLTEyLjUxMDEgUTUzLjk0NDYgLTEyLjUxMDEgNTMuMzgyMSAtMTIuMDQxMyBRNTMuNjk0NiAtMTIuMDQxMyA1My44ODk5IC0xMS44MDY5IFE1NC4wODUyIC0xMS41NzI2IDU0LjA4NTIgLTExLjI3NTcgUTU0LjA4NTIgLTEwLjk0NzYgNTMuODU4NiAtMTAuNzIxIFE1My42MzIxIC0xMC40OTQ0IDUzLjMxOTYgLTEwLjQ5NDQgUTUzLjAwNzEgLTEwLjQ5NDQgNTIuNzgwNSAtMTAuNzIxIFE1Mi41NTM5IC0xMC45NDc2IDUyLjU1MzkgLTExLjI3NTcgUTUyLjU1MzkgLTEyLjExOTQgNTMuMzE5NiAtMTIuNTI1NyBRNTQuMDg1MiAtMTIuOTMxOSA1NS4wMDcxIC0xMi45MzE5IFE1NS42NDc3IC0xMi45MzE5IDU2LjMwMzkgLTEyLjY1ODUgUTU2Ljk2MDIgLTEyLjM4NTEgNTcuMzgyMSAtMTEuODY5NCBRNTcuODAzOSAtMTEuMzUzOCA1Ny44MDM5IC0xMC42NjYzIEw1Ny44MDM5IC03LjA1NjkgUTU3LjgwMzkgLTYuNzQ0NCA1Ny45MzY3IC02LjQ4NjYgUTU4LjA2OTYgLTYuMjI4OCA1OC4zNTA4IC02LjIyODggUTU4LjYxNjQgLTYuMjI4OCA1OC43NDE0IC02LjQ5NDQgUTU4Ljg2NjQgLTYuNzYwMSA1OC44NjY0IC03LjA1NjkgTDU4Ljg2NjQgLTguMDg4MiBMNTkuMzM1MiAtOC4wODgyIEw1OS4zMzUyIC03LjA1NjkgUTU5LjMzNTIgLTYuNjk3NiA1OS4xNDc3IC02LjM3NzIgUTU4Ljk2MDIgLTYuMDU2OSA1OC42NDc3IC01Ljg2MTYgUTU4LjMzNTIgLTUuNjY2MyA1Ny45NjAyIC01LjY2NjMgUTU3LjQ5MTQgLTUuNjY2MyA1Ny4xNTU1IC02LjAzMzUgUTU2LjgxOTYgLTYuNDAwNyA1Ni43NzI3IC02LjkwMDcgUTU2LjQ3NTggLTYuMjkxMyA1NS44OTc3IC01LjkzMTkgUTU1LjMxOTYgLTUuNTcyNiA1NC42NjMzIC01LjU3MjYgUTU0LjA1MzkgLTUuNTcyNiA1My40NjggLTUuNzYwMSBRNTIuODgyMSAtNS45NDc2IDUyLjQ4MzYgLTYuMzMwNCBRNTIuMDg1MiAtNi43MTMyIDUyLjA4NTIgLTcuMzM4MiBaTTUzLjM4MjEgLTcuMzM4MiBRNTMuMzgyMSAtNi43NzU3IDUzLjc5NjEgLTYuMzkyOSBRNTQuMjEwMiAtNi4wMTAxIDU0Ljc3MjcgLTYuMDEwMSBRNTUuMjg4MyAtNi4wMTAxIDU1LjcxMDIgLTYuMjY3OSBRNTYuMTMyMSAtNi41MjU3IDU2LjM4MjEgLTYuOTcxIFE1Ni42MzIxIC03LjQxNjMgNTYuNjMyMSAtNy45MDA3IEw1Ni42MzIxIC05LjU3MjYgUTU1LjkxMzMgLTkuNTcyNiA1NS4xNDc3IC05LjMzMDQgUTU0LjM4MjEgLTkuMDg4MiA1My44ODIxIC04LjU4MDQgUTUzLjM4MjEgLTguMDcyNiA1My4zODIxIC03LjMzODIgWiINCiAgICAgIC8+PHBhdGggc3R5bGU9InN0cm9rZTpub25lOyIgZD0iTTU5Ljk0NDYgLTUuNzYwMSBMNTkuOTQ0NiAtNi4zMjI2IFE2MC40OTE1IC02LjMyMjYgNjAuODQzIC02LjQwODUgUTYxLjE5NDYgLTYuNDk0NCA2MS4xOTQ2IC02LjgzODIgTDYxLjE5NDYgLTE1LjIyODggUTYxLjE5NDYgLTE1LjY2NjMgNjEuMDYxOCAtMTUuODUzOCBRNjAuOTI5IC0xNi4wNDEzIDYwLjY4NjggLTE2LjA4ODIgUTYwLjQ0NDYgLTE2LjEzNTEgNTkuOTQ0NiAtMTYuMTM1MSBMNTkuOTQ0NiAtMTYuNjk3NiBMNjIuMzE5NiAtMTYuODY5NCBMNjIuMzE5NiAtNi44MzgyIFE2Mi4zMTk2IC02LjQ5NDQgNjIuNjcxMSAtNi40MDg1IFE2My4wMjI3IC02LjMyMjYgNjMuNTU0IC02LjMyMjYgTDYzLjU1NCAtNS43NjAxIEw1OS45NDQ2IC01Ljc2MDEgWiINCiAgICAvPjwvZw0KICAgID48ZyBzdHlsZT0ic3Ryb2tlLWxpbmVjYXA6YnV0dDsgdGV4dC1yZW5kZXJpbmc6Z2VvbWV0cmljUHJlY2lzaW9uOyBjb2xvci1yZW5kZXJpbmc6b3B0aW1pemVRdWFsaXR5OyBpbWFnZS1yZW5kZXJpbmc6b3B0aW1pemVRdWFsaXR5OyBzdHJva2UtbGluZWpvaW46cm91bmQ7IGNvbG9yLWludGVycG9sYXRpb246bGluZWFyUkdCOyBzdHJva2Utd2lkdGg6MC42NjY3OyINCiAgICA+PHBhdGggZD0iTTczIDI5NC44NDYyIEw3My40MzQ0IDI5NC44NDYyIEw3My44Njg5IDI5NC44NDYyIEw3NC4zMDMzIDI5NC44NDYyIEw3NC43Mzc3IDI5NC44NDYyIEw3NS4xNzIyIDI5NC44NDYyIEw3NS42MDY2IDI5NC44NDYyIEw3Ni4wNDEgMjk0Ljg0NjIgTDc2LjQ3NTUgMjk0Ljg0NjIgTDc2LjkwOTkgMjk0Ljg0NjIgTDc3LjM0NDMgMjk0Ljg0NjIgTDc3Ljc3ODggMjk0Ljg0NjIgTDc4LjIxMzIgMjk0Ljg0NjIgTDc4LjY0NzYgMjk0Ljg0NjIgTDc5LjA4MjEgMjk0Ljg0NjIgTDc5LjUxNjUgMjk0Ljg0NjIgTDc5Ljk1MSAyOTQuODQ2MiBMODAuMzg1NCAyOTQuODQ2MiBMODAuODE5OCAyOTQuODQ2MiBMODEuMjU0MyAyOTQuODQ2MiBMODEuNjg4NyAyOTQuODQ2MiBMODIuMTIzMSAyOTQuODQ2MiBMODIuNTU3NiAyOTQuODQ2MiBMODIuOTkyIDI5NC44NDYyIEw4My40MjY0IDI5NC44NDYyIEw4My44NjA5IDI5NC44NDYyIEw4NC4yOTUzIDI5NC44NDYyIEw4NC43Mjk3IDI5NC44NDYyIEw4NS4xNjQyIDI5NC44NDYyIEw4NS41OTg2IDI5NC44NDYyIEw4Ni4wMzMgMjk0Ljg0NjIgTDg2LjQ2NzUgMjk0Ljg0NjIgTDg2LjkwMTkgMjk0Ljg0NjIgTDg3LjMzNjMgMjk0Ljg0NjIgTDg3Ljc3MDggMjk0Ljg0NjIgTDg4LjIwNTIgMjk0Ljg0NjIgTDg4LjYzOTYgMjk0Ljg0NjIgTDg5LjA3NDEgMjk0Ljg0NjIgTDg5LjUwODUgMjk0Ljg0NjIgTDg5Ljk0MjkgMjk0Ljg0NjIgTDkwLjM3NzQgMjk0Ljg0NjIgTDkwLjgxMTggMjk0Ljg0NjIgTDkxLjI0NjIgMjk0Ljg0NjIgTDkxLjY4MDcgMjk0Ljg0NjIgTDkyLjExNTEgMjk0Ljg0NjIgTDkyLjU0OTYgMjk0Ljg0NjIgTDkyLjk4NCAyOTQuODQ2MiBMOTMuNDE4NCAyOTQuODQ2MiBMOTMuODUyOSAyOTQuODQ2MiBMOTQuMjg3MyAyOTQuODQ2MiBMOTQuNzIxNyAyOTQuODQ2MiBMOTUuMTU2MiAyOTQuODQ2MiBMOTUuNTkwNiAyOTQuODQ2MiBMOTYuMDI1IDI5NC44NDYyIEw5Ni40NTk1IDI5NC44NDYyIEw5Ni44OTM5IDI5NC44NDYyIEw5Ny4zMjgzIDI5NC44NDYyIEw5Ny43NjI4IDI5NC44NDYyIEw5OC4xOTcyIDI5NC44NDYyIEw5OC42MzE2IDI5NC44NDYyIEw5OS4wNjYxIDI5NC44NDYyIEw5OS41MDA1IDI5NC44NDYyIEw5OS45MzQ5IDI5NC44NDYyIEwxMDAuMzY5NCAyOTQuODQ2MiBMMTAwLjgwMzggMjk0Ljg0NjIgTDEwMS4yMzgyIDI5NC44NDYyIEwxMDEuNjcyNyAyOTQuODQ2MiBMMTAyLjEwNzEgMjk0Ljg0NjIgTDEwMi41NDE1IDI5NC44NDYyIEwxMDIuOTc2IDI5NC44NDYyIEwxMDMuNDEwNCAyOTQuODQ2MiBMMTAzLjg0NDggMjk0Ljg0NjIgTDEwNC4yNzkzIDI5NC44NDYyIEwxMDQuNzEzNyAyOTQuODQ2MiBMMTA1LjE0ODEgMjk0Ljg0NjIgTDEwNS41ODI2IDI5NC44NDYyIEwxMDYuMDE3IDI5NC44NDYyIEwxMDYuNDUxNSAyOTQuODQ2MiBMMTA2Ljg4NTkgMjk0Ljg0NjIgTDEwNy4zMjAzIDI5NC44NDYyIEwxMDcuNzU0OCAyOTQuODQ2MiBMMTA4LjE4OTIgMjk0Ljg0NjIgTDEwOC42MjM2IDI5NC44NDYyIEwxMDkuMDU4MSAyOTQuODQ2MiBMMTA5LjQ5MjUgMjk0Ljg0NjIgTDEwOS45MjY5IDI5NC44NDYyIEwxMTAuMzYxNCAyOTQuODQ2MiBMMTEwLjc5NTggMjk0Ljg0NjIgTDExMS4yMzAyIDI5NC44NDYyIEwxMTEuNjY0NyAyOTQuODQ2MiBMMTEyLjA5OTEgMjk0Ljg0NjIgTDExMi41MzM1IDI5NC44NDYyIEwxMTIuOTY4IDI5NC44NDYyIEwxMTMuNDAyNCAyOTQuODQ2MiBMMTEzLjgzNjggMjk0Ljg0NjIgTDExNC4yNzEzIDI5NC44NDYyIEwxMTQuNzA1NyAyOTQuODQ2MiBMMTE1LjE0MDEgMjk0Ljg0NjIgTDExNS41NzQ2IDI5NC44NDYyIEwxMTYuMDA5IDI5NC44NDYyIEwxMTYuNDQzNCAyOTQuODQ2MiBMMTE2Ljg3NzkgMjk0Ljg0NjIgTDExNy4zMTIzIDI5NC44NDYyIEwxMTcuNzQ2NyAyOTQuODQ2MiBMMTE4LjE4MTIgMjk0Ljg0NjIgTDExOC42MTU2IDI5NC44NDYyIEwxMTkuMDUgMjk0Ljg0NjIgTDExOS40ODQ1IDI5NC44NDYyIEwxMTkuOTE4OSAyOTQuODQ2MiBMMTIwLjM1MzMgMjk0Ljg0NjIgTDEyMC43ODc4IDI5NC44NDYyIEwxMjEuMjIyMiAyOTQuODQ2MiBMMTIxLjY1NjcgMjk0Ljg0NjIgTDEyMi4wOTExIDI5NC44NDYyIEwxMjIuNTI1NSAyOTQuODQ2MiBMMTIyLjk2IDI5NC44NDYyIEwxMjMuMzk0NCAyOTQuODQ2MiBMMTIzLjgyODggMjk0Ljg0NjIgTDEyNC4yNjMzIDI5NC44NDYyIEwxMjQuNjk3NyAyOTQuODQ2MiBMMTI1LjEzMjEgMjk0Ljg0NjIgTDEyNS41NjY2IDI5NC44NDYyIEwxMjYuMDAxIDI5NC44NDYyIEwxMjYuNDM1NCAyOTQuODQ2MiBMMTI2Ljg2OTkgMjk0Ljg0NjIgTDEyNy4zMDQzIDI5NC44NDYyIEwxMjcuNzM4NyAyOTQuODQ2MiBMMTI4LjE3MzIgMjk0Ljg0NjIgTDEyOC42MDc2IDI5NC44NDYyIEwxMjkuMDQyIDI5NC44NDYyIEwxMjkuNDc2NSAyOTQuODQ2MiBMMTI5LjkxMDkgMjk0Ljg0NjIgTDEzMC4zNDU0IDI5NC44NDYyIEwxMzAuNzc5OCAyOTQuODQ2MiBMMTMxLjIxNDIgMjk0Ljg0NjIgTDEzMS42NDg3IDI5NC44NDYyIEwxMzIuMDgzMSAyOTQuODQ2MiBMMTMyLjUxNzUgMjk0Ljg0NjIgTDEzMi45NTIgMjk0Ljg0NjIgTDEzMy4zODY0IDI5NC44NDYyIEwxMzMuODIwOCAyOTQuODQ2MiBMMTM0LjI1NTIgMjk0Ljg0NjIgTDEzNC42ODk3IDI5NC44NDYyIEwxMzUuMTI0MSAyOTQuODQ2MiBMMTM1LjU1ODYgMjk0Ljg0NjIgTDEzNS45OTMgMjk0Ljg0NjIgTDEzNi40Mjc0IDI5NC44NDYyIEwxMzYuODYxOSAyOTQuODQ2MiBMMTM3LjI5NjMgMjk0Ljg0NjIgTDEzNy43MzA3IDI5NC44NDYyIEwxMzguMTY1MiAyOTQuODQ2MiBMMTM4LjU5OTYgMjk0Ljg0NjIgTDEzOS4wMzQgMjk0Ljg0NjIgTDEzOS40Njg1IDI5NC44NDYyIEwxMzkuOTAyOSAyOTQuODQ2MiBMMTQwLjMzNzMgMjk0Ljg0NjIgTDE0MC43NzE4IDI5NC44NDYyIEwxNDEuMjA2MiAyOTQuODQ2MiBMMTQxLjY0MDYgMjk0Ljg0NjIgTDE0Mi4wNzUxIDI5NC44NDYyIEwxNDIuNTA5NSAyOTQuODQ2MiBMMTQyLjk0MzkgMjk0Ljg0NjIgTDE0My4zNzg0IDI5NC44NDYyIEwxNDMuODEyOCAyOTQuODQ2MiBMMTQ0LjI0NzMgMjk0Ljg0NjIgTDE0NC42ODE3IDI5NC44NDYyIEwxNDUuMTE2MSAyOTQuODQ2MiBMMTQ1LjU1MDYgMjk0Ljg0NjIgTDE0NS45ODUgMjk0Ljg0NjIgTDE0Ni40MTk0IDI5NC44NDYyIEwxNDYuODUzOSAyOTQuODQ2MiBMMTQ3LjI4ODMgMjk0Ljg0NjIgTDE0Ny43MjI3IDI5NC44NDYyIEwxNDguMTU3MiAyOTQuODQ2MiBMMTQ4LjU5MTYgMjk0Ljg0NjIgTDE0OS4wMjYgMjk0Ljg0NjIgTDE0OS40NjA1IDI5NC44NDYyIEwxNDkuODk0OSAyOTQuODQ2MiBMMTUwLjMyOTMgMjk0Ljg0NjIgTDE1MC43NjM4IDI5NC44NDYyIEwxNTEuMTk4MiAyOTQuODQ2MiBMMTUxLjYzMjYgMjk0Ljg0NjIgTDE1Mi4wNjcxIDI5NC44NDYyIEwxNTIuNTAxNSAyOTQuODQ2MiBMMTUyLjkzNTkgMjk0Ljg0NjIgTDE1My4zNzA0IDI5NC44NDYyIEwxNTMuODA0OCAyOTQuODQ2MiBMMTU0LjIzOTIgMjk0Ljg0NjIgTDE1NC42NzM3IDI5NC44NDYyIEwxNTUuMTA4MSAyOTQuODQ2MiBMMTU1LjU0MjUgMjk0Ljg0NjIgTDE1NS45NzcgMjk0Ljg0NjIgTDE1Ni40MTE0IDI5NC44NDYyIEwxNTYuODQ1OCAyOTQuODQ2MiBMMTU3LjI4MDMgMjk0Ljg0NjIgTDE1Ny43MTQ3IDI5NC44NDYyIEwxNTguMTQ5MiAyOTQuODQ2MiBMMTU4LjU4MzYgMjk0Ljg0NjIgTDE1OS4wMTggMjk0Ljg0NjIgTDE1OS40NTI1IDI5NC44NDYyIEwxNTkuODg2OSAyOTQuODQ2MiBMMTYwLjMyMTMgMjk0Ljg0NjIgTDE2MC43NTU4IDI5NC44NDYyIEwxNjEuMTkwMiAyOTQuODQ2MiBMMTYxLjYyNDYgMjk0Ljg0NjIgTDE2Mi4wNTkxIDI5NC44NDYyIEwxNjIuNDkzNSAyOTQuODQ2MiBMMTYyLjkyNzkgMjk0Ljg0NjIgTDE2My4zNjI0IDI5NC44NDYyIEwxNjMuNzk2OCAyOTQuODQ2MiBMMTY0LjIzMTIgMjk0Ljg0NjIgTDE2NC42NjU3IDI5NC44NDYyIEwxNjUuMTAwMSAyOTQuODQ2MiBMMTY1LjUzNDUgMjk0Ljg0NjIgTDE2NS45NjkgMjk0Ljg0NjIgTDE2Ni40MDM0IDI5NC44NDYyIEwxNjYuODM3OCAyOTQuODQ2MiBMMTY3LjI3MjMgMjk0Ljg0NjIgTDE2Ny43MDY3IDI5NC44NDYyIEwxNjguMTQxMSAyOTQuODQ2MiBMMTY4LjU3NTYgMjk0Ljg0NjIgTDE2OS4wMSAyOTQuODQ2MiBMMTY5LjQ0NDQgMjk0Ljg0NjIgTDE2OS44Nzg5IDI5NC44NDYyIEwxNzAuMzEzMyAyOTQuODQ2MiBMMTcwLjc0NzggMjk0Ljg0NjIgTDE3MS4xODIyIDI5NC44NDYyIEwxNzEuNjE2NiAyOTQuODQ2MiBMMTcyLjA1MTEgMjk0Ljg0NjIgTDE3Mi40ODU1IDI5NC44NDYyIEwxNzIuOTE5OSAyOTQuODQ2MiBMMTczLjM1NDQgMjk0Ljg0NjIgTDE3My43ODg4IDI5NC44NDYyIEwxNzQuMjIzMiAyOTQuODQ2MiBMMTc0LjY1NzcgMjk0Ljg0NjIgTDE3NS4wOTIxIDI5NC44NDYyIEwxNzUuNTI2NSAyOTQuODQ2MiBMMTc1Ljk2MSAyOTQuODQ2MiBMMTc2LjM5NTQgMjk0Ljg0NjIgTDE3Ni44Mjk4IDI5NC44NDYyIEwxNzcuMjY0MyAyOTQuODQ2MiBMMTc3LjY5ODcgMjk0Ljg0NjIgTDE3OC4xMzMxIDI5NC44NDYyIEwxNzguNTY3NiAyOTQuODQ2MiBMMTc5LjAwMiAyOTQuODQ2MiBMMTc5LjQzNjQgMjk0Ljg0NjIgTDE3OS44NzA5IDI5NC44NDYyIEwxODAuMzA1MyAyOTQuODQ2MiBMMTgwLjczOTcgMjk0Ljg0NjIgTDE4MS4xNzQyIDI5NC44NDYyIEwxODEuNjA4NiAyOTQuODQ2MiBMMTgyLjA0MyAyOTQuODQ2MiBMMTgyLjQ3NzUgMjk0Ljg0NjIgTDE4Mi45MTE5IDI5NC44NDYyIEwxODMuMzQ2MyAyOTQuODQ2MiBMMTgzLjc4MDggMjk0Ljg0NjIgTDE4NC4yMTUyIDI5NC44NDYyIEwxODQuNjQ5NiAyOTQuODQ2MiBMMTg1LjA4NDEgMjk0Ljg0NjIgTDE4NS41MTg1IDI5NC44NDYyIEwxODUuOTUzIDI5NC44NDYyIEwxODYuMzg3NCAyOTQuODQ2MiBMMTg2LjgyMTggMjk0Ljg0NjIgTDE4Ny4yNTYzIDI5NC44NDYyIEwxODcuNjkwNyAyOTQuODQ2MiBMMTg4LjEyNTEgMjk0Ljg0NjIgTDE4OC41NTk2IDI5NC44NDYyIEwxODguOTk0IDI5NC44NDYyIEwxODkuNDI4NCAyOTQuODQ2MiBMMTg5Ljg2MjkgMjk0Ljg0NjIgTDE5MC4yOTczIDI5NC44NDYyIEwxOTAuNzMxNyAyOTQuODQ2MiBMMTkxLjE2NjIgMjk0Ljg0NjIgTDE5MS42MDA2IDI5NC44NDYyIEwxOTIuMDM1IDI5NC44NDYyIEwxOTIuNDY5NSAyOTQuODQ2MiBMMTkyLjkwMzkgMjk0Ljg0NjIgTDE5My4zMzgzIDI5NC44NDYyIEwxOTMuNzcyOCAyOTQuODQ2MiBMMTk0LjIwNzIgMjk0Ljg0NjIgTDE5NC42NDE2IDI5NC44NDYyIEwxOTUuMDc2MSAyOTQuODQ2MiBMMTk1LjUxMDUgMjk0Ljg0NjIgTDE5NS45NDQ5IDI5NC44NDYyIEwxOTYuMzc5NCAyOTQuODQ2MiBMMTk2LjgxMzggMjk0Ljg0NjIgTDE5Ny4yNDgyIDI5NC44NDYyIEwxOTcuNjgyNyAyOTQuODQ2MiBMMTk4LjExNzEgMjk0Ljg0NjIgTDE5OC41NTE1IDI5NC44NDYyIEwxOTguOTg2IDI5NC44NDYyIEwxOTkuNDIwNCAyOTQuODQ2MiBMMTk5Ljg1NDkgMjk0Ljg0NjIgTDIwMC4yODkzIDI5NC44NDYyIEwyMDAuNzIzNyAyOTQuODQ2MiBMMjAxLjE1ODIgMjk0Ljg0NjIgTDIwMS41OTI2IDI5NC44NDYyIEwyMDIuMDI3IDI5NC44NDYyIEwyMDIuNDYxNSAyOTQuODQ2MiBMMjAyLjg5NTkgMjk0Ljg0NjIgTDIwMy4zMzAzIDI5NC44NDYyIEwyMDMuNzY0OCAyOTQuODQ2MiBMMjA0LjE5OTIgMjk0Ljg0NjIgTDIwNC42MzM2IDI5NC44NDYyIEwyMDUuMDY4MSAyOTQuODQ2MiBMMjA1LjUwMjUgMjk0Ljg0NjIgTDIwNS45MzY5IDI5NC44NDYyIEwyMDYuMzcxNCAyOTQuODQ2MiBMMjA2LjgwNTggMjk0Ljg0NjIgTDIwNy4yNDAyIDI5NC44NDYyIEwyMDcuNjc0NyAyOTQuODQ2MiBMMjA4LjEwOTEgMjk0Ljg0NjIgTDIwOC41NDM1IDI5NC44NDYyIEwyMDguOTc4IDI5NC44NDYyIEwyMDkuNDEyNCAyOTQuODQ2MiBMMjA5Ljg0NjggMjk0Ljg0NjIgTDIxMC4yODEzIDI5NC44NDYyIEwyMTAuNzE1NyAyOTQuODQ2MiBMMjExLjE1MDEgMjk0Ljg0NjIgTDIxMS41ODQ2IDI5NC44NDYyIEwyMTIuMDE5IDI5NC44NDYyIEwyMTIuNDUzNSAyOTQuODQ2MiBMMjEyLjg4NzkgMjk0Ljg0NjIgTDIxMy4zMjIzIDI5NC44NDYyIEwyMTMuNzU2OCAyOTQuODQ2MiBMMjE0LjE5MTIgMjk0Ljg0NjIgTDIxNC42MjU2IDI5NC44NDYyIEwyMTUuMDYwMSAyOTQuODQ2MiBMMjE1LjQ5NDUgMjk0Ljg0NjIgTDIxNS45Mjg5IDI5NC44NDYyIEwyMTYuMzYzNCAyOTQuODQ2MiBMMjE2Ljc5NzggMjk0Ljg0NjIgTDIxNy4yMzIyIDI5NC44NDYyIEwyMTcuNjY2NyAyOTQuODQ2MiBMMjE4LjEwMTEgMjk0Ljg0NjIgTDIxOC41MzU1IDI5NC44NDYyIEwyMTguOTcgMjk0Ljg0NjIgTDIxOS40MDQ0IDI5NC44NDYyIEwyMTkuODM4OCAyOTQuODQ2MiBMMjIwLjI3MzMgMjk0Ljg0NjIgTDIyMC43MDc3IDI5NC44NDYyIEwyMjEuMTQyMiAyOTQuODQ2MiBMMjIxLjU3NjYgMjk0Ljg0NjIgTDIyMi4wMTEgMjk0Ljg0NjIgTDIyMi40NDU0IDI5NC44NDYyIEwyMjIuODc5OSAyOTQuODQ2MiBMMjIzLjMxNDMgMjk0Ljg0NjIgTDIyMy43NDg3IDI5NC44NDYyIEwyMjQuMTgzMiAyOTQuODQ2MiBMMjI0LjYxNzYgMjk0Ljg0NjIgTDIyNS4wNTIgMjk0Ljg0NjIgTDIyNS40ODY1IDI5NC44NDYyIEwyMjUuOTIwOSAyOTQuODQ2MiBMMjI2LjM1NTQgMjk0Ljg0NjIgTDIyNi43ODk4IDI5NC44NDYyIEwyMjcuMjI0MiAyOTQuODQ2MiBMMjI3LjY1ODcgMjk0Ljg0NjIgTDIyOC4wOTMxIDI5NC44NDYyIEwyMjguNTI3NSAyOTQuODQ2MiBMMjI4Ljk2MiAyOTQuODQ2MiBMMjI5LjM5NjQgMjk0Ljg0NjIgTDIyOS44MzA4IDI5NC44NDYyIEwyMzAuMjY1MyAyOTQuODQ2MiBMMjMwLjY5OTcgMjk0Ljg0NjIgTDIzMS4xMzQxIDI5NC44NDYyIEwyMzEuNTY4NiAyOTQuODQ2MiBMMjMyLjAwMyAyOTQuODQ2MiBMMjMyLjQzNzQgMjk0Ljg0NjIgTDIzMi44NzE5IDI5NC44NDYyIEwyMzMuMzA2MyAyOTQuODQ2MiBMMjMzLjc0MDcgMjk0Ljg0NjIgTDIzNC4xNzUyIDI5NC44NDYyIEwyMzQuNjA5NiAyOTQuODQ2MiBMMjM1LjA0NCAyOTQuODQ2MiBMMjM1LjQ3ODUgMjk0Ljg0NjIgTDIzNS45MTI5IDI5NC44NDYyIEwyMzYuMzQ3MyAyOTQuODQ2MiBMMjM2Ljc4MTggMjk0Ljg0NjIgTDIzNy4yMTYyIDI5NC44NDYyIEwyMzcuNjUwNyAyOTQuODQ2MiBMMjM4LjA4NTEgMjk0Ljg0NjIgTDIzOC41MTk1IDI5NC44NDYyIEwyMzguOTU0IDI5NC44NDYyIEwyMzkuMzg4NCAyOTQuODQ2MiBMMjM5LjgyMjggMjk0Ljg0NjIgTDI0MC4yNTczIDI5NC44NDYyIEwyNDAuNjkxNyAyOTQuODQ2MiBMMjQxLjEyNjEgMjk0Ljg0NjIgTDI0MS41NjA2IDI5NC44NDYyIEwyNDEuOTk1IDI5NC44NDYyIEwyNDIuNDI5NCAyOTQuODQ2MiBMMjQyLjg2MzkgMjk0Ljg0NjIgTDI0My4yOTgzIDI5NC44NDYyIEwyNDMuNzMyNyAyOTQuODQ2MiBMMjQ0LjE2NzIgMjk0Ljg0NjIgTDI0NC42MDE2IDI5NC44NDYyIEwyNDUuMDM2IDI5NC44NDYyIEwyNDUuNDcwNSAyOTQuODQ2MiBMMjQ1LjkwNDkgMjk0Ljg0NjIgTDI0Ni4zMzkzIDI5NC44NDYyIEwyNDYuNzczOCAyOTQuODQ2MiBMMjQ3LjIwODIgMjk0Ljg0NjIgTDI0Ny42NDI2IDI5NC44NDYyIEwyNDguMDc3MSAyOTQuODQ2MiBMMjQ4LjUxMTUgMjk0Ljg0NjIgTDI0OC45NDYgMjk0Ljg0NjIgTDI0OS4zODA0IDI5NC44NDYyIEwyNDkuODE0OCAyOTQuODQ2MiBMMjUwLjI0OTMgMjk0Ljg0NjIgTDI1MC42ODM3IDI5NC44NDYyIEwyNTEuMTE4MSAyOTQuODQ2MiBMMjUxLjU1MjYgMjk0Ljg0NjIgTDI1MS45ODcgMjk0Ljg0NjIgTDI1Mi40MjE0IDI5NC44NDYyIEwyNTIuODU1OSAyOTQuODQ2MiBMMjUzLjI5MDMgMjk0Ljg0NjIgTDI1My43MjQ3IDI5NC44NDYyIEwyNTQuMTU5MiAyOTQuODQ2MiBMMjU0LjU5MzYgMjk0Ljg0NjIgTDI1NS4wMjggMjk0Ljg0NjIgTDI1NS40NjI1IDI5NC44NDYyIEwyNTUuODk2OSAyOTQuODQ2MiBMMjU2LjMzMTMgMjk0Ljg0NjIgTDI1Ni43NjU4IDI5NC44NDYyIEwyNTcuMjAwMiAyOTQuODQ2MiBMMjU3LjYzNDYgMjk0Ljg0NjIgTDI1OC4wNjkxIDI5NC44NDYyIEwyNTguNTAzNSAyOTQuODQ2MiBMMjU4LjkzNzkgMjk0Ljg0NjIgTDI1OS4zNzI0IDI5NC44NDYyIEwyNTkuODA2OCAyOTQuODQ2MiBMMjYwLjI0MTIgMjk0Ljg0NjIgTDI2MC42NzU3IDI5NC44NDYyIEwyNjEuMTEwMSAyOTQuODQ2MiBMMjYxLjU0NDUgMjk0Ljg0NjIgTDI2MS45NzkgMjk0Ljg0NjIgTDI2Mi40MTM0IDI5NC44NDYyIEwyNjIuODQ3OCAyOTQuODQ2MiBMMjYzLjI4MjMgMjk0Ljg0NjIgTDI2My43MTY3IDI5NC44NDYyIEwyNjQuMTUxMiAyOTQuODQ2MiBMMjY0LjU4NTYgMjk0Ljg0NjIgTDI2NS4wMiAyOTQuODQ2MiBMMjY1LjQ1NDUgMjk0Ljg0NjIgTDI2NS44ODg5IDI5NC44NDYyIEwyNjYuMzIzMyAyOTQuODQ2MiBMMjY2Ljc1NzggMjk0Ljg0NjIgTDI2Ny4xOTIyIDI5NC44NDYyIEwyNjcuNjI2NiAyOTQuODQ2MiBMMjY4LjA2MTEgMjk0Ljg0NjIgTDI2OC40OTU1IDI5NC44NDYyIEwyNjguOTI5OSAyOTQuODQ2MiBMMjY5LjM2NDQgMjk0Ljg0NjIgTDI2OS43OTg4IDI5NC44NDYyIEwyNzAuMjMzMiAyOTQuODQ2MiBMMjcwLjY2NzcgMjk0Ljg0NjIgTDI3MS4xMDIxIDI5NC44NDYyIEwyNzEuNTM2NSAyOTQuODQ2MiBMMjcxLjk3MSAyOTQuODQ2MiBMMjcyLjQwNTQgMjk0Ljg0NjIgTDI3Mi44Mzk4IDI5NC44NDYyIEwyNzMuMjc0MyAyOTQuODQ2MiBMMjczLjcwODcgMjk0Ljg0NjIgTDI3NC4xNDMxIDI5NC44NDYyIEwyNzQuNTc3NiAyOTQuODQ2MiBMMjc1LjAxMiAyOTQuODQ2MiBMMjc1LjQ0NjQgMjk0Ljg0NjIgTDI3NS44ODA5IDI5NC44NDYyIEwyNzYuMzE1MyAyOTQuODQ2MiBMMjc2Ljc0OTggMjk0Ljg0NjIgTDI3Ny4xODQyIDI5NC44NDYyIEwyNzcuNjE4NiAyOTQuODQ2MiBMMjc4LjA1MzEgMjk0Ljg0NjIgTDI3OC40ODc1IDI5NC44NDYyIEwyNzguOTIxOSAyOTQuODQ2MiBMMjc5LjM1NjQgMjk0Ljg0NjIgTDI3OS43OTA4IDI5NC44NDYyIEwyODAuMjI1MiAyOTQuODQ2MiBMMjgwLjY1OTcgMjk0Ljg0NjIgTDI4MS4wOTQxIDI5NC44NDYyIEwyODEuNTI4NSAyOTQuODQ2MiBMMjgxLjk2MyAyOTQuODQ2MiBMMjgyLjM5NzQgMjk0Ljg0NjIgTDI4Mi44MzE4IDI5NC44NDYyIEwyODMuMjY2MyAyOTQuODQ2MiBMMjgzLjcwMDcgMjk0Ljg0NjIgTDI4NC4xMzUxIDI5NC44NDYyIEwyODQuNTY5NiAyOTQuODQ2MiBMMjg1LjAwNCAyOTQuODQ2MiBMMjg1LjQzODQgMjk0Ljg0NjIgTDI4NS44NzI5IDI5NC44NDYyIEwyODYuMzA3MyAyOTQuODQ2MiBMMjg2Ljc0MTcgMjk0Ljg0NjIgTDI4Ny4xNzYyIDI5NC44NDYyIEwyODcuNjEwNiAyOTQuODQ2MiBMMjg4LjA0NSAyOTQuODQ2MiBMMjg4LjQ3OTUgMjk0Ljg0NjIgTDI4OC45MTM5IDI5NC44NDYyIEwyODkuMzQ4NCAyOTQuODQ2MiBMMjg5Ljc4MjggMjk0Ljg0NjIgTDI5MC4yMTcyIDI5NC44NDYyIEwyOTAuNjUxNiAyOTQuODQ2MiBMMjkxLjA4NjEgMjk0Ljg0NjIgTDI5MS41MjA1IDI5NC44NDYyIEwyOTEuOTU1IDI5NC44NDYyIEwyOTIuMzg5NCAyOTQuODQ2MiBMMjkyLjgyMzggMjk0Ljg0NjIgTDI5My4yNTgzIDI5NC44NDYyIEwyOTMuNjkyNyAyOTQuODQ2MiBMMjk0LjEyNzEgMjk0Ljg0NjIgTDI5NC41NjE2IDI5NC44NDYyIEwyOTQuOTk2IDI5NC44NDYyIEwyOTUuNDMwNCAyOTQuODQ2MiBMMjk1Ljg2NDkgMjk0Ljg0NjIgTDI5Ni4yOTkzIDI5NC44NDYyIEwyOTYuNzMzNyAyOTQuODQ2MiBMMjk3LjE2ODIgMjk0Ljg0NjIgTDI5Ny42MDI2IDI5NC44NDYyIEwyOTguMDM3IDI5NC44NDYyIEwyOTguNDcxNSAyOTQuODQ2MiBMMjk4LjkwNTkgMjk0Ljg0NjIgTDI5OS4zNDAzIDI5NC44NDYyIEwyOTkuNzc0OCAyOTQuODQ2MiBMMzAwLjIwOTIgMjk0Ljg0NjIgTDMwMC42NDM2IDI5NC44NDYyIEwzMDEuMDc4MSAyOTQuODQ2MiBMMzAxLjUxMjUgMjk0Ljg0NjIgTDMwMS45NDY5IDI5NC44NDYyIEwzMDIuMzgxNCAyOTQuODQ2MiBMMzAyLjgxNTggMjk0Ljg0NjIgTDMwMy4yNTAyIDI5NC44NDYyIEwzMDMuNjg0NyAyOTQuODQ2MiBMMzA0LjExOTEgMjk0Ljg0NjIgTDMwNC41NTM2IDI5NC44NDYyIEwzMDQuOTg4IDI5NC44NDYyIEwzMDUuNDIyNCAyOTQuODQ2MiBMMzA1Ljg1NjkgMjk0Ljg0NjIgTDMwNi4yOTEzIDI5NC44NDYyIEwzMDYuNzI1NyAyOTQuODQ2MiBMMzA3LjE2MDIgMjk0Ljg0NjIgTDMwNy41OTQ2IDI5NC44NDYyIEwzMDguMDI5IDI5NC44NDYyIEwzMDguNDYzNSAyOTQuODQ2MiBMMzA4Ljg5NzkgMjk0Ljg0NjIgTDMwOS4zMzIzIDI5NC44NDYyIEwzMDkuNzY2OCAyOTQuODQ2MiBMMzEwLjIwMTIgMjk0Ljg0NjIgTDMxMC42MzU2IDI5NC44NDYyIEwzMTEuMDcwMSAyOTQuODQ2MiBMMzExLjUwNDUgMjk0Ljg0NjIgTDMxMS45Mzg5IDI5NC44NDYyIEwzMTIuMzczNCAyOTQuODQ2MiBMMzEyLjgwNzggMjk0Ljg0NjIgTDMxMy4yNDIyIDI5NC44NDYyIEwzMTMuNjc2NyAyOTQuODQ2MiBMMzE0LjExMTEgMjk0Ljg0NjIgTDMxNC41NDU1IDI5NC44NDYyIEwzMTQuOTggMjk0Ljg0NjIgTDMxNS40MTQ0IDI5NC44NDYyIEwzMTUuODQ4OCAyOTQuODQ2MiBMMzE2LjI4MzMgMjk0Ljg0NjIgTDMxNi43MTc3IDI5NC44NDYyIEwzMTcuMTUyMiAyOTQuODQ2MiBMMzE3LjU4NjYgMjk0Ljg0NjIgTDMxOC4wMjEgMjk0Ljg0NjIgTDMxOC40NTU1IDI5NC44NDYyIEwzMTguODg5OSAyOTQuODQ2MiBMMzE5LjMyNDMgMjk0Ljg0NjIgTDMxOS43NTg4IDI5NC44NDYyIEwzMjAuMTkzMiAyOTQuODQ2MiBMMzIwLjYyNzYgMjk0Ljg0NjIgTDMyMS4wNjIxIDI5NC44NDYyIEwzMjEuNDk2NSAyOTQuODQ2MiBMMzIxLjkzMDkgMjk0Ljg0NjIgTDMyMi4zNjU0IDI5NC44NDYyIEwzMjIuNzk5OCAyOTQuODQ2MiBMMzIzLjIzNDIgMjk0Ljg0NjIgTDMyMy42Njg3IDI5NC44NDYyIEwzMjQuMTAzMSAyOTQuODQ2MiBMMzI0LjUzNzUgMjk0Ljg0NjIgTDMyNC45NzIgMjk0Ljg0NjIgTDMyNS40MDY0IDI5NC44NDYyIEwzMjUuODQwOCAyOTQuODQ2MiBMMzI2LjI3NTMgMjk0Ljg0NjIgTDMyNi43MDk3IDI5NC44NDYyIEwzMjcuMTQ0MSAyOTQuODQ2MiBMMzI3LjU3ODYgMjk0Ljg0NjIgTDMyOC4wMTMgMjk0Ljg0NjIgTDMyOC40NDc0IDI5NC44NDYyIEwzMjguODgxOSAyOTQuODQ2MiBMMzI5LjMxNjMgMjk0Ljg0NjIgTDMyOS43NTA4IDI5NC44NDYyIEwzMzAuMTg1MiAyOTQuODQ2MiBMMzMwLjYxOTYgMjk0Ljg0NjIgTDMzMS4wNTQgMjk0Ljg0NjIgTDMzMS40ODg1IDI5NC44NDYyIEwzMzEuOTIyOSAyOTQuODQ2MiBMMzMyLjM1NzQgMjk0Ljg0NjIgTDMzMi43OTE4IDI5NC44NDYyIEwzMzMuMjI2MiAyOTQuODQ2MiBMMzMzLjY2MDcgMjk0Ljg0NjIgTDMzNC4wOTUxIDI5NC44NDYyIEwzMzQuNTI5NSAyOTQuODQ2MiBMMzM0Ljk2NCAyOTQuODQ2MiBMMzM1LjM5ODQgMjk0Ljg0NjIgTDMzNS44MzI4IDI5NC44NDYyIEwzMzYuMjY3MyAyOTQuODQ2MiBMMzM2LjcwMTcgMjk0Ljg0NjIgTDMzNy4xMzYxIDI5NC44NDYyIEwzMzcuNTcwNiAyOTQuODQ2MiBMMzM4LjAwNSAyOTQuODQ2MiBMMzM4LjQzOTQgMjk0Ljg0NjIgTDMzOC44NzM5IDI5NC44NDYyIEwzMzkuMzA4MyAyOTQuODQ2MiBMMzM5Ljc0MjcgMjk0Ljg0NjIgTDM0MC4xNzcyIDI5NC44NDYyIEwzNDAuNjExNiAyOTQuODQ2MiBMMzQxLjA0NjEgMjk0Ljg0NjIgTDM0MS40ODA1IDI5NC44NDYyIEwzNDEuOTE0OSAyOTQuODQ2MiBMMzQyLjM0OTQgMjk0Ljg0NjIgTDM0Mi43ODM4IDI5NC44NDYyIEwzNDMuMjE4MiAyOTQuODQ2MiBMMzQzLjY1MjYgMjk0Ljg0NjIgTDM0NC4wODcxIDI5NC44NDYyIEwzNDQuNTIxNSAyOTQuODQ2MiBMMzQ0Ljk1NiAyOTQuODQ2MiBMMzQ1LjM5MDQgMjk0Ljg0NjIgTDM0NS44MjQ4IDI5NC44NDYyIEwzNDYuMjU5MiAyOTQuODQ2MiBMMzQ2LjY5MzcgMjk0Ljg0NjIgTDM0Ny4xMjgxIDI5NC44NDYyIEwzNDcuNTYyNiAyOTQuODQ2MiBMMzQ3Ljk5NyAyOTQuODQ2MiBMMzQ4LjQzMTQgMjk0Ljg0NjIgTDM0OC44NjU4IDI5NC44NDYyIEwzNDkuMzAwMyAyOTQuODQ2MiBMMzQ5LjczNDcgMjk0Ljg0NjIgTDM1MC4xNjkyIDI5NC44NDYyIEwzNTAuNjAzNiAyOTQuODQ2MiBMMzUxLjAzOCAyOTQuODQ2MiBMMzUxLjQ3MjUgMjk0Ljg0NjIgTDM1MS45MDY5IDI5NC44NDYyIEwzNTIuMzQxMyAyOTQuODQ2MiBMMzUyLjc3NTggMjk0Ljg0NjIgTDM1My4yMTAyIDI5NC44NDYyIEwzNTMuNjQ0NyAyOTQuODQ2MiBMMzU0LjA3OTEgMjk0Ljg0NjIgTDM1NC41MTM1IDI5NC44NDYyIEwzNTQuOTQ4IDI5NC44NDYyIEwzNTUuMzgyNCAyOTQuODQ2MiBMMzU1LjgxNjggMjk0Ljg0NjIgTDM1Ni4yNTEzIDI5NC44NDYyIEwzNTYuNjg1NyAyOTQuODQ2MiBMMzU3LjEyMDEgMjk0Ljg0NjIgTDM1Ny41NTQ2IDI5NC44NDYyIEwzNTcuOTg5IDI5NC44NDYyIEwzNTguNDIzNCAyOTQuODQ2MiBMMzU4Ljg1NzggMjk0Ljg0NjIgTDM1OS4yOTIzIDI5NC44NDYyIEwzNTkuNzI2NyAyOTQuODQ2MiBMMzYwLjE2MTIgMjk0Ljg0NjIgTDM2MC41OTU2IDI5NC44NDYyIEwzNjEuMDMgMjk0Ljg0NjIgTDM2MS40NjQ0IDI5NC44NDYyIEwzNjEuODk4OSAyOTQuODQ2MiBMMzYyLjMzMzMgMjk0Ljg0NjIgTDM2Mi43Njc4IDI5NC44NDYyIEwzNjMuMjAyMiAyOTQuODQ2MiBMMzYzLjYzNjYgMjk0Ljg0NjIgTDM2NC4wNzExIDI5NC44NDYyIEwzNjQuNTA1NSAyOTQuODQ2MiBMMzY0LjkzOTkgMjk0Ljg0NjIgTDM2NS4zNzQ0IDI5NC44NDYyIEwzNjUuODA4OCAyOTQuODQ2MiBMMzY2LjI0MzMgMjk0Ljg0NjIgTDM2Ni42Nzc3IDI5NC44NDYyIEwzNjcuMTEyMSAyOTQuODQ2MiBMMzY3LjU0NjUgMjk0Ljg0NjIgTDM2Ny45ODEgMjk0Ljg0NjIgTDM2OC40MTU0IDI5NC44NDYyIEwzNjguODQ5OSAyOTQuODQ2MiBMMzY5LjI4NDMgMjk0Ljg0NjIgTDM2OS43MTg3IDI5NC44NDYyIEwzNzAuMTUzMiAyOTQuODQ2MiBMMzcwLjU4NzYgMjk0Ljg0NjIgTDM3MS4wMjIgMjk0Ljg0NjIgTDM3MS40NTY1IDI5NC44NDYyIEwzNzEuODkwOSAyOTQuODQ2MiBMMzcyLjMyNTMgMjk0Ljg0NjIgTDM3Mi43NTk4IDI5NC44NDYyIEwzNzMuMTk0MiAyOTQuODQ2MiBMMzczLjYyODYgMjk0Ljg0NjIgTDM3NC4wNjMgMjk0Ljg0NjIgTDM3NC40OTc1IDI5NC44NDYyIEwzNzQuOTMxOSAyOTQuODQ2MiBMMzc1LjM2NjQgMjk0Ljg0NjIgTDM3NS44MDA4IDI5NC44NDYyIEwzNzYuMjM1MiAyOTQuODQ2MiBMMzc2LjY2OTcgMjk0Ljg0NjIgTDM3Ny4xMDQxIDI5NC44NDYyIEwzNzcuNTM4NSAyOTQuODQ2MiBMMzc3Ljk3MyAyOTQuODQ2MiBMMzc4LjQwNzQgMjk0Ljg0NjIgTDM3OC44NDE5IDI5NC44NDYyIEwzNzkuMjc2MyAyOTQuODQ2MiBMMzc5LjcxMDcgMjk0Ljg0NjIgTDM4MC4xNDUxIDI5NC44NDYyIEwzODAuNTc5NiAyOTQuODQ2MiBMMzgxLjAxNCAyOTQuODQ2MiBMMzgxLjQ0ODUgMjk0Ljg0NjIgTDM4MS44ODI5IDI5NC44NDYyIEwzODIuMzE3MyAyOTQuODQ2MiBMMzgyLjc1MTcgMjk0Ljg0NjIgTDM4My4xODYyIDI5NC44NDYyIEwzODMuNjIwNiAyOTQuODQ2MiBMMzg0LjA1NTEgMjk0Ljg0NjIgTDM4NC40ODk1IDI5NC44NDYyIEwzODQuOTIzOSAyOTQuODQ2MiBMMzg1LjM1ODMgMjk0Ljg0NjIgTDM4NS43OTI4IDI5NC44NDYyIEwzODYuMjI3MiAyOTQuODQ2MiBMMzg2LjY2MTcgMjk0Ljg0NjIgTDM4Ny4wOTYxIDI5NC44NDYyIEwzODcuNTMwNSAyOTQuODQ2MiBMMzg3Ljk2NSAyOTQuODQ2MiBMMzg4LjM5OTQgMjk0Ljg0NjIgTDM4OC44MzM4IDI5NC44NDYyIEwzODkuMjY4MyAyOTQuODQ2MiBMMzg5LjcwMjcgMjk0Ljg0NjIgTDM5MC4xMzcxIDI5NC44NDYyIEwzOTAuNTcxNiAyOTQuODQ2MiBMMzkxLjAwNiAyOTQuODQ2MiBMMzkxLjQ0MDUgMjk0Ljg0NjIgTDM5MS44NzQ5IDI5NC44NDYyIEwzOTIuMzA5MyAyOTQuODQ2MiBMMzkyLjc0MzcgMjk0Ljg0NjIgTDM5My4xNzgyIDI5NC44NDYyIEwzOTMuNjEyNiAyOTQuODQ2MiBMMzk0LjA0NzEgMjk0Ljg0NjIgTDM5NC40ODE1IDI5NC44NDYyIEwzOTQuOTE1OSAyOTQuODQ2MiBMMzk1LjM1MDMgMjk0Ljg0NjIgTDM5NS43ODQ4IDI5NC44NDYyIEwzOTYuMjE5MiAyOTQuODQ2MiBMMzk2LjY1MzcgMjk0Ljg0NjIgTDM5Ny4wODgxIDI5NC44NDYyIEwzOTcuNTIyNSAyOTQuODQ2MiBMMzk3Ljk1NjkgMjk0Ljg0NjIgTDM5OC4zOTE0IDI5NC44NDYyIEwzOTguODI1OCAyOTQuODQ2MiBMMzk5LjI2MDMgMjk0Ljg0NjIgTDM5OS42OTQ3IDI5NC44NDYyIEw0MDAuMTI5MSAyOTQuODQ2MiBMNDAwLjU2MzYgMjk0Ljg0NjIgTDQwMC45OTggMjk0Ljg0NjIgTDQwMS40MzI0IDI5NC44NDYyIEw0MDEuODY2OSAyOTQuODQ2MiBMNDAyLjMwMTMgMjk0Ljg0NjIgTDQwMi43MzU3IDI5NC44NDYyIEw0MDMuMTcwMiAyOTQuODQ2MiBMNDAzLjYwNDYgMjk0Ljg0NjIgTDQwNC4wMzkxIDI5NC44NDYyIEw0MDQuNDczNSAyOTQuODQ2MiBMNDA0LjkwNzkgMjk0Ljg0NjIgTDQwNS4zNDIzIDI5NC44NDYyIEw0MDUuNzc2OCAyOTQuODQ2MiBMNDA2LjIxMTIgMjk0Ljg0NjIgTDQwNi42NDU3IDI5NC44NDYyIEw0MDcuMDgwMSAyOTQuODQ2MiBMNDA3LjUxNDUgMjk0Ljg0NjIgTDQwNy45NDg5IDI5NC44NDYyIEw0MDguMzgzNCAyOTQuODQ2MiBMNDA4LjgxNzggMjk0Ljg0NjIgTDQwOS4yNTIzIDI5NC44NDYyIEw0MDkuNjg2NyAyOTQuODQ2MiBMNDEwLjEyMTEgMjk0Ljg0NjIgTDQxMC41NTU1IDI5NC44NDYyIEw0MTAuOTkgMjk0Ljg0NjIgTDQxMS40MjQ0IDI5NC44NDYyIEw0MTEuODU4OSAyOTQuODQ2MiBMNDEyLjI5MzMgMjk0Ljg0NjIgTDQxMi43Mjc3IDI5NC44NDYyIEw0MTMuMTYyMiAyOTQuODQ2MiBMNDEzLjU5NjYgMjk0Ljg0NjIgTDQxNC4wMzEgMjk0Ljg0NjIgTDQxNC40NjU1IDI5NC44NDYyIEw0MTQuODk5OSAyOTQuODQ2MiBMNDE1LjMzNDQgMjk0Ljg0NjIgTDQxNS43Njg4IDI5NC44NDYyIEw0MTYuMjAzMiAyOTQuODQ2MiBMNDE2LjYzNzYgMjk0Ljg0NjIgTDQxNy4wNzIxIDI5NC44NDYyIEw0MTcuNTA2NSAyOTQuODQ2MiBMNDE3Ljk0MDkgMjk0Ljg0NjIgTDQxOC4zNzU0IDI5NC44NDYyIEw0MTguODA5OCAyOTQuODQ2MiBMNDE5LjI0NDIgMjk0Ljg0NjIgTDQxOS42Nzg3IDI5NC44NDYyIEw0MjAuMTEzMSAyOTQuODQ2MiBMNDIwLjU0NzUgMjk0Ljg0NjIgTDQyMC45ODIgMjk0Ljg0NjIgTDQyMS40MTY0IDI5NC44NDYyIEw0MjEuODUwOSAyOTQuODQ2MiBMNDIyLjI4NTMgMjk0Ljg0NjIgTDQyMi43MTk3IDI5NC44NDYyIEw0MjMuMTU0MiAyOTQuODQ2MiBMNDIzLjU4ODYgMjk0Ljg0NjIgTDQyNC4wMjMgMjk0Ljg0NjIgTDQyNC40NTc1IDI5NC44NDYyIEw0MjQuODkxOSAyOTQuODQ2MiBMNDI1LjMyNjMgMjk0Ljg0NjIgTDQyNS43NjA3IDI5NC44NDYyIEw0MjYuMTk1MiAyOTQuODQ2MiBMNDI2LjYyOTYgMjk0Ljg0NjIgTDQyNy4wNjQxIDI5NC44NDYyIEw0MjcuNDk4NSAyOTQuODQ2MiBMNDI3LjkzMjkgMjk0Ljg0NjIgTDQyOC4zNjc0IDI5NC44NDYyIEw0MjguODAxOCAyOTQuODQ2MiBMNDI5LjIzNjIgMjk0Ljg0NjIgTDQyOS42NzA3IDI5NC44NDYyIEw0MzAuMTA1MSAyOTQuODQ2MiBMNDMwLjUzOTYgMjk0Ljg0NjIgTDQzMC45NzQgMjk0Ljg0NjIgTDQzMS40MDg0IDI5NC44NDYyIEw0MzEuODQyOSAyOTQuODQ2MiBMNDMyLjI3NzMgMjk0Ljg0NjIgTDQzMi43MTE3IDI5NC44NDYyIEw0MzMuMTQ2MSAyOTQuODQ2MiBMNDMzLjU4MDYgMjk0Ljg0NjIgTDQzNC4wMTUgMjk0Ljg0NjIgTDQzNC40NDk0IDI5NC44NDYyIEw0MzQuODgzOSAyOTQuODQ2MiBMNDM1LjMxODMgMjk0Ljg0NjIgTDQzNS43NTI3IDI5NC44NDYyIEw0MzYuMTg3MiAyOTQuODQ2MiBMNDM2LjYyMTYgMjk0Ljg0NjIgTDQzNy4wNTYxIDI5NC44NDYyIEw0MzcuNDkwNSAyOTQuODQ2MiBMNDM3LjkyNDkgMjk0Ljg0NjIgTDQzOC4zNTk0IDI5NC44NDYyIEw0MzguNzkzOCAyOTQuODQ2MiBMNDM5LjIyODIgMjk0Ljg0NjIgTDQzOS42NjI3IDI5NC44NDYyIEw0NDAuMDk3MSAyOTQuODQ2MiBMNDQwLjUzMTYgMjk0Ljg0NjIgTDQ0MC45NjYgMjk0Ljg0NjIgTDQ0MS40MDA0IDI5NC44NDYyIEw0NDEuODM0OCAyOTQuODQ2MiBMNDQyLjI2OTMgMjk0Ljg0NjIgTDQ0Mi43MDM3IDI5NC44NDYyIEw0NDMuMTM4MSAyOTQuODQ2MiBMNDQzLjU3MjYgMjk0Ljg0NjIgTDQ0NC4wMDcgMjk0Ljg0NjIgTDQ0NC40NDE0IDI5NC44NDYyIEw0NDQuODc1OSAyOTQuODQ2MiBMNDQ1LjMxMDMgMjk0Ljg0NjIgTDQ0NS43NDQ4IDI5NC44NDYyIEw0NDYuMTc5MiAyOTQuODQ2MiBMNDQ2LjYxMzYgMjk0Ljg0NjIgTDQ0Ny4wNDgxIDI5NC44NDYyIEw0NDcuNDgyNSAyOTQuODQ2MiBMNDQ3LjkxNjkgMjk0Ljg0NjIgTDQ0OC4zNTEzIDI5NC44NDYyIEw0NDguNzg1OCAyOTQuODQ2MiBMNDQ5LjIyMDIgMjk0Ljg0NjIgTDQ0OS42NTQ2IDI5NC44NDYyIEw0NTAuMDg5MSAyOTQuODQ2MiBMNDUwLjUyMzUgMjk0Ljg0NjIgTDQ1MC45NTc5IDI5NC44NDYyIEw0NTEuMzkyNCAyOTQuODQ2MiBMNDUxLjgyNjggMjk0Ljg0NjIgTDQ1Mi4yNjEzIDI5NC44NDYyIEw0NTIuNjk1NyAyOTQuODQ2MiBMNDUzLjEzMDEgMjk0Ljg0NjIgTDQ1My41NjQ1IDI5NC44NDYyIEw0NTMuOTk5IDI5NC44NDYyIEw0NTQuNDMzNCAyOTQuODQ2MiBMNDU0Ljg2NzkgMjk0Ljg0NjIgTDQ1NS4zMDIzIDI5NC44NDYyIEw0NTUuNzM2OCAyOTQuODQ2MiBMNDU2LjE3MTIgMjk0Ljg0NjIgTDQ1Ni42MDU2IDI5NC44NDYyIEw0NTcuMDQwMSAyOTQuODQ2MiBMNDU3LjQ3NDUgMjk0Ljg0NjIgTDQ1Ny45MDg5IDI5NC44NDYyIEw0NTguMzQzMyAyOTQuODQ2MiBMNDU4Ljc3NzggMjk0Ljg0NjIgTDQ1OS4yMTIyIDI5NC44NDYyIEw0NTkuNjQ2NiAyOTQuODQ2MiBMNDYwLjA4MTEgMjk0Ljg0NjIgTDQ2MC41MTU1IDI5NC44NDYyIEw0NjAuOTUgMjk0Ljg0NjIgTDQ2MS4zODQ0IDI5NC44NDYyIEw0NjEuODE4OCAyOTQuODQ2MiBMNDYyLjI1MzMgMjk0Ljg0NjIgTDQ2Mi42ODc3IDI5NC44NDYyIEw0NjMuMTIyMSAyOTQuODQ2MiBMNDYzLjU1NjUgMjk0Ljg0NjIgTDQ2My45OTEgMjk0Ljg0NjIgTDQ2NC40MjU0IDI5NC44NDYyIEw0NjQuODU5OSAyOTQuODQ2MiBMNDY1LjI5NDMgMjk0Ljg0NjIgTDQ2NS43Mjg3IDI5NC44NDYyIEw0NjYuMTYzMiAyOTQuODQ2MiBMNDY2LjU5NzYgMjk0Ljg0NjIgTDQ2Ny4wMzIgMjk0Ljg0NjIgTDQ2Ny40NjY1IDI5NC44NDYyIEw0NjcuOTAwOSAyOTQuODQ2MiBMNDY4LjMzNTMgMjk0Ljg0NjIgTDQ2OC43Njk3IDI5NC44NDYyIEw0NjkuMjA0MiAyOTQuODQ2MiBMNDY5LjYzODYgMjk0Ljg0NjIgTDQ3MC4wNzMxIDI5NC44NDYyIEw0NzAuNTA3NSAyOTQuODQ2MiBMNDcwLjk0MiAyOTQuODQ2MiBMNDcxLjM3NjQgMjk0Ljg0NjIgTDQ3MS44MTA4IDI5NC44NDYyIEw0NzIuMjQ1MiAyOTQuODQ2MiBMNDcyLjY3OTcgMjk0Ljg0NjIgTDQ3My4xMTQxIDI5NC44NDYyIEw0NzMuNTQ4NSAyOTQuODQ2MiBMNDczLjk4MyAyOTQuODQ2MiBMNDc0LjQxNzQgMjk0Ljg0NjIgTDQ3NC44NTE4IDI5NC44NDYyIEw0NzUuMjg2MyAyOTQuODQ2MiBMNDc1LjcyMDcgMjk0Ljg0NjIgTDQ3Ni4xNTUyIDI5NC44NDYyIEw0NzYuNTg5NiAyOTQuODQ2MiBMNDc3LjAyNCAyOTQuODQ2MiBMNDc3LjQ1ODUgMjk0Ljg0NjIgTDQ3Ny44OTI5IDI5NC44NDYyIEw0NzguMzI3MyAyOTQuODQ2MiBMNDc4Ljc2MTcgMjk0Ljg0NjIgTDQ3OS4xOTYyIDI5NC44NDYyIEw0NzkuNjMwNiAyOTQuODQ2MiBMNDgwLjA2NTEgMjk0Ljg0NjIgTDQ4MC40OTk1IDI5NC44NDYyIEw0ODAuOTM0IDI5NC44NDYyIEw0ODEuMzY4NCAyOTQuODQ2MiBMNDgxLjgwMjggMjk0Ljg0NjIgTDQ4Mi4yMzcyIDI5NC44NDYyIEw0ODIuNjcxNyAyOTQuODQ2MiBMNDgzLjEwNjEgMjk0Ljg0NjIgTDQ4My41NDA1IDI5NC44NDYyIEw0ODMuOTc0OSAyOTQuODQ2MiBMNDg0LjQwOTQgMjk0Ljg0NjIgTDQ4NC44NDM4IDI5NC44NDYyIEw0ODUuMjc4MyAyOTQuODQ2MiBMNDg1LjcxMjcgMjk0Ljg0NjIgTDQ4Ni4xNDcyIDI5NC44NDYyIEw0ODYuNTgxNiAyOTQuODQ2MiBMNDg3LjAxNiAyOTQuODQ2MiBMNDg3LjQ1MDQgMjk0Ljg0NjIgTDQ4Ny44ODQ5IDI5NC44NDYyIEw0ODguMzE5MyAyOTQuODQ2MiBMNDg4Ljc1MzggMjk0Ljg0NjIgTDQ4OS4xODgyIDI5NC44NDYyIEw0ODkuNjIyNiAyOTQuODQ2MiBMNDkwLjA1NzEgMjk0Ljg0NjIgTDQ5MC40OTE1IDI5NC44NDYyIEw0OTAuOTI1OSAyOTQuODQ2MiBMNDkxLjM2MDQgMjk0Ljg0NjIgTDQ5MS43OTQ4IDI5NC44NDYyIEw0OTIuMjI5MiAyOTQuODQ2MiBMNDkyLjY2MzcgMjk0Ljg0NjIgTDQ5My4wOTgxIDI5NC44NDYyIEw0OTMuNTMyNSAyOTQuODQ2MiBMNDkzLjk2NjkgMjk0Ljg0NjIgTDQ5NC40MDE0IDI5NC44NDYyIEw0OTQuODM1OCAyOTQuODQ2MiBMNDk1LjI3MDMgMjk0Ljg0NjIgTDQ5NS43MDQ3IDI5NC44NDYyIEw0OTYuMTM5MiAyOTQuODQ2MiBMNDk2LjU3MzYgMjk0Ljg0NjIgTDQ5Ny4wMDggMjk0Ljg0NjIgTDQ5Ny40NDI0IDI5NC44NDYyIEw0OTcuODc2OSAyOTQuODQ2MiBMNDk4LjMxMTMgMjk0Ljg0NjIgTDQ5OC43NDU3IDI5NC44NDYyIEw0OTkuMTgwMiAyOTQuODQ2MiBMNDk5LjYxNDYgMjk0Ljg0NjIgTDUwMC4wNDkgMjk0Ljg0NjIgTDUwMC40ODM1IDI5NC44NDYyIEw1MDAuOTE3OSAyOTQuODQ2MiBMNTAxLjM1MjQgMjk0Ljg0NjIgTDUwMS43ODY4IDI5NC44NDYyIEw1MDIuMjIxMiAyOTQuODQ2MiBMNTAyLjY1NTYgMjk0Ljg0NjIgTDUwMy4wOTAxIDI5NC44NDYyIEw1MDMuNTI0NSAyOTQuODQ2MiBMNTAzLjk1OSAyOTQuODQ2MiBMNTA0LjM5MzQgMjk0Ljg0NjIgTDUwNC44Mjc5IDI5NC44NDYyIEw1MDUuMjYyMyAyOTQuODQ2MiBMNTA1LjY5NjcgMjk0Ljg0NjIgTDUwNi4xMzExIDI5NC44NDYyIEw1MDYuNTY1NiAyOTQuODQ2MiBMNTA3IDI5NC44NDYyIiBzdHlsZT0iZmlsbDpub25lOyBmaWxsLXJ1bGU6ZXZlbm9kZDsiDQogICAgICAvPjxwYXRoIGQ9Ik04Ni40MTI3IDMwLjk1OTEgTDg2LjgwMiA1Ny40NjUzIEw4Ny4yMzIxIDgzLjc1MjkgTDg3LjY2MjIgMTA3LjQwOTkgTDg4LjA5MjMgMTI4Ljc1MTQgTDg4LjUyMjMgMTQ4LjA0ODIgTDg4Ljk1MjQgMTY1LjUzMzYgTDg5LjM4MjUgMTgxLjQwOTIgTDg5LjgxMjYgMTk1Ljg1MDMgTDkwLjI0MjcgMjA5LjAwOTggTDkwLjY3MjggMjIxLjAyMSBMOTEuMTAyOSAyMzIuMDAxMyBMOTEuNTMzIDI0Mi4wNTM3IEw5MS45NjMxIDI1MS4yNjkxIEw5Mi4zOTMyIDI1OS43Mjc5IEw5Mi44MjMyIDI2Ny41MDE3IEw5My4yNTMzIDI3NC42NTM4IEw5My42ODM0IDI4MS4yNDA5IEw5NC4xMTM1IDI4Ny4zMTM1IEw5NC41NDM2IDI5Mi45MTY4IEw5NC45NzM3IDI5OC4wOTE2IEw5NS40MDM4IDMwMi44NzQxIEw5NS44MzM5IDMwNy4yOTc1IEw5Ni4yNjQgMzExLjM5MTMgTDk2LjY5NDEgMzE1LjE4MjMgTDk3LjEyNDEgMzE4LjY5NDkgTDk3LjU1NDIgMzIxLjk1MSBMOTcuOTg0MyAzMjQuOTcwOCBMOTguNDE0NCAzMjcuNzcyMyBMOTguODQ0NSAzMzAuMzcyMiBMOTkuMjc0NiAzMzIuNzg1NiBMOTkuNzA0NyAzMzUuMDI2NCBMMTAwLjEzNDggMzM3LjEwNzEgTDEwMC41NjQ5IDMzOS4wMzk1IEwxMDAuOTk1IDM0MC44MzQgTDEwMS40MjUgMzQyLjUwMDYgTDEwMS44NTUxIDM0NC4wNDgxIEwxMDIuMjg1MiAzNDUuNDg0OCBMMTAyLjcxNTMgMzQ2LjgxODMgTDEwMy4xNDU0IDM0OC4wNTU2IEwxMDMuNTc1NSAzNDkuMjAzMiBMMTA0LjAwNTYgMzUwLjI2NzIgTDEwNC40MzU3IDM1MS4yNTI5IEwxMDQuODY1OCAzNTIuMTY1NiBMMTA1LjI5NTkgMzUzLjAxIEwxMDUuNzI1OSAzNTMuNzkwNSBMMTA2LjE1NiAzNTQuNTExMiBMMTA2LjU4NjEgMzU1LjE3NTggTDEwNy4wMTYyIDM1NS43ODggTDEwNy40NDYzIDM1Ni4zNTEgTDEwNy44NzY0IDM1Ni44Njc5IEwxMDguMzA2NSAzNTcuMzQxNSBMMTA4LjczNjYgMzU3Ljc3NDQgTDEwOS4xNjY3IDM1OC4xNjkyIEwxMDkuNTk2OCAzNTguNTI4MiBMMTEwLjAyNjggMzU4Ljg1MzUgTDExMC40NTY5IDM1OS4xNDcyIEwxMTAuODg3IDM1OS40MTExIEwxMTEuMzE3MSAzNTkuNjQ3IEwxMTEuNzQ3MiAzNTkuODU2NiBMMTEyLjE3NzMgMzYwLjA0MTQgTDExMi42MDc0IDM2MC4yMDI5IEwxMTMuMDM3NSAzNjAuMzQyNCBMMTEzLjQ2NzYgMzYwLjQ2MTMgTDExMy44OTc3IDM2MC41NjA4IEwxMTQuMzI3OCAzNjAuNjQxOCBMMTE0Ljc1NzggMzYwLjcwNTcgTDExNS4xODc5IDM2MC43NTMyIEwxMTUuNjE4IDM2MC43ODU1IEwxMTYuMDQ4MSAzNjAuODAzMyBMMTE2LjQ3ODIgMzYwLjgwNzUgTDExNi45MDgzIDM2MC43OTg5IEwxMTcuMzM4NCAzNjAuNzc4MSBMMTE3Ljc2ODUgMzYwLjc0NjEgTDExOC4xOTg2IDM2MC43MDMyIEwxMTguNjI4NiAzNjAuNjUwMyBMMTE5LjA1ODcgMzYwLjU4NzkgTDExOS40ODg4IDM2MC41MTY1IEwxMTkuOTE4OSAzNjAuNDM2NiBMMTIwLjM0OSAzNjAuMzQ4OSBMMTIwLjc3OTEgMzYwLjI1MzYgTDEyMS4yMDkyIDM2MC4xNTEzIEwxMjEuNjM5MyAzNjAuMDQyNCBMMTIyLjA2OTQgMzU5LjkyNzIgTDEyMi40OTk1IDM1OS44MDYyIEwxMjIuOTI5NiAzNTkuNjc5NiBMMTIzLjM1OTYgMzU5LjU0NzkgTDEyMy43ODk3IDM1OS40MTEzIEwxMjQuMjE5OCAzNTkuMjcwMiBMMTI0LjY0OTkgMzU5LjEyNDggTDEyNS4wOCAzNTguOTc1NCBMMTI1LjUxMDEgMzU4LjgyMjMgTDEyNS45NDAyIDM1OC42NjU2IEwxMjYuMzcwMyAzNTguNTA1NyBMMTI2LjgwMDQgMzU4LjM0MjcgTDEyNy4yMzA0IDM1OC4xNzY4IEwxMjcuNjYwNSAzNTguMDA4MyBMMTI4LjA5MDYgMzU3LjgzNzMgTDEyOC41MjA3IDM1Ny42NjQgTDEyOC45NTA4IDM1Ny40ODg2IEwxMjkuMzgwOSAzNTcuMzExMiBMMTI5LjgxMSAzNTcuMTMxOSBMMTMwLjI0MTEgMzU2Ljk1MSBMMTMwLjY3MTIgMzU2Ljc2ODUgTDEzMS4xMDEzIDM1Ni41ODQ2IEwxMzEuNTMxNCAzNTYuMzk5NCBMMTMxLjk2MTQgMzU2LjIxMyBMMTMyLjM5MTUgMzU2LjAyNTUgTDEzMi44MjE2IDM1NS44MzcxIEwxMzMuMjUxNyAzNTUuNjQ3OCBMMTMzLjY4MTggMzU1LjQ1NzcgTDEzNC4xMTE5IDM1NS4yNjY5IEwxMzQuNTQyIDM1NS4wNzU1IEwxMzQuOTcyMSAzNTQuODgzNiBMMTM1LjQwMjIgMzU0LjY5MTMgTDEzNS44MzIyIDM1NC40OTg1IEwxMzYuMjYyMyAzNTQuMzA1NSBMMTM2LjY5MjQgMzU0LjExMjIgTDEzNy4xMjI1IDM1My45MTg3IEwxMzcuNTUyNiAzNTMuNzI1MSBMMTM3Ljk4MjcgMzUzLjUzMTUgTDEzOC40MTI4IDM1My4zMzc4IEwxMzguODQyOSAzNTMuMTQ0MSBMMTM5LjI3MyAzNTIuOTUwNiBMMTM5LjcwMzEgMzUyLjc1NzEgTDE0MC4xMzMxIDM1Mi41NjM5IEwxNDAuNTYzMiAzNTIuMzcwOCBMMTQwLjk5MzMgMzUyLjE3OCBMMTQxLjQyMzQgMzUxLjk4NTUgTDE0MS44NTM1IDM1MS43OTM0IEwxNDIuMjgzNiAzNTEuNjAxNSBMMTQyLjcxMzcgMzUxLjQxMDEgTDE0My4xNDM4IDM1MS4yMTkgTDE0My41NzM5IDM1MS4wMjg0IEwxNDQuMDA0IDM1MC44MzgzIEwxNDQuNDM0MSAzNTAuNjQ4NyBMMTQ0Ljg2NDIgMzUwLjQ1OTUgTDE0NS4yOTQyIDM1MC4yNzEgTDE0NS43MjQzIDM1MC4wODI5IEwxNDYuMTU0NCAzNDkuODk1NSBMMTQ2LjU4NDUgMzQ5LjcwODYgTDE0Ny4wMTQ2IDM0OS41MjI0IEwxNDcuNDQ0NyAzNDkuMzM2OCBMMTQ3Ljg3NDggMzQ5LjE1MTggTDE0OC4zMDQ5IDM0OC45Njc1IEwxNDguNzM1IDM0OC43ODM5IEwxNDkuMTY1IDM0OC42MDA5IEwxNDkuNTk1MSAzNDguNDE4NyBMMTUwLjAyNTIgMzQ4LjIzNzEgTDE1MC40NTUzIDM0OC4wNTYzIEwxNTAuODg1NCAzNDcuODc2MiBMMTUxLjMxNTUgMzQ3LjY5NjggTDE1MS43NDU2IDM0Ny41MTgyIEwxNTIuMTc1NyAzNDcuMzQwMyBMMTUyLjYwNTggMzQ3LjE2MzIgTDE1My4wMzU5IDM0Ni45ODY4IEwxNTMuNDY1OSAzNDYuODExMyBMMTUzLjg5NiAzNDYuNjM2NSBMMTU0LjMyNjEgMzQ2LjQ2MjUgTDE1NC43NTYyIDM0Ni4yODkyIEwxNTUuMTg2MyAzNDYuMTE2OCBMMTU1LjYxNjQgMzQ1Ljk0NTEgTDE1Ni4wNDY1IDM0NS43NzQzIEwxNTYuNDc2NiAzNDUuNjA0MiBMMTU2LjkwNjcgMzQ1LjQzNSBMMTU3LjMzNjggMzQ1LjI2NjUgTDE1Ny43NjY4IDM0NS4wOTg5IEwxNTguMTk2OSAzNDQuOTMyIEwxNTguNjI3IDM0NC43NjYgTDE1OS4wNTcxIDM0NC42MDA4IEwxNTkuNDg3MiAzNDQuNDM2NCBMMTU5LjkxNzMgMzQ0LjI3MjggTDE2MC4zNDc0IDM0NC4xMSBMMTYwLjc3NzUgMzQzLjk0OCBMMTYxLjIwNzYgMzQzLjc4NjggTDE2MS42Mzc3IDM0My42MjY1IEwxNjIuMDY3NyAzNDMuNDY2OSBMMTYyLjQ5NzggMzQzLjMwODEgTDE2Mi45Mjc5IDM0My4xNTAyIEwxNjMuMzU4IDM0Mi45OTMxIEwxNjMuNzg4MSAzNDIuODM2NyBMMTY0LjIxODIgMzQyLjY4MTIgTDE2NC42NDgzIDM0Mi41MjY0IEwxNjUuMDc4NCAzNDIuMzcyNSBMMTY1LjUwODUgMzQyLjIxOTQgTDE2NS45Mzg2IDM0Mi4wNjcgTDE2Ni4zNjg3IDM0MS45MTU0IEwxNjYuNzk4NyAzNDEuNzY0NiBMMTY3LjIyODggMzQxLjYxNDcgTDE2Ny42NTg5IDM0MS40NjU1IEwxNjguMDg5IDM0MS4zMTcgTDE2OC41MTkxIDM0MS4xNjk0IEwxNjguOTQ5MiAzNDEuMDIyNSBMMTY5LjM3OTMgMzQwLjg3NjQgTDE2OS44MDk0IDM0MC43MzEgTDE3MC4yMzk1IDM0MC41ODY1IEwxNzAuNjY5NSAzNDAuNDQyNyBMMTcxLjA5OTYgMzQwLjI5OTYgTDE3MS41Mjk3IDM0MC4xNTczIEwxNzEuOTU5OCAzNDAuMDE1OCBMMTcyLjM4OTkgMzM5Ljg3NSBMMTcyLjgyIDMzOS43MzQ5IEwxNzMuMjUwMSAzMzkuNTk1NiBMMTczLjY4MDIgMzM5LjQ1NyBMMTc0LjExMDMgMzM5LjMxOTIgTDE3NC41NDA0IDMzOS4xODIxIEwxNzQuOTcwNCAzMzkuMDQ1NyBMMTc1LjQwMDUgMzM4LjkxIEwxNzUuODMwNiAzMzguNzc1MSBMMTc2LjI2MDcgMzM4LjY0MDggTDE3Ni42OTA4IDMzOC41MDczIEwxNzcuMTIwOSAzMzguMzc0NSBMMTc3LjU1MSAzMzguMjQyNCBMMTc3Ljk4MTEgMzM4LjExMSBMMTc4LjQxMTIgMzM3Ljk4MDMgTDE3OC44NDEzIDMzNy44NTAyIEwxNzkuMjcxMyAzMzcuNzIwOSBMMTc5LjcwMTQgMzM3LjU5MjIgTDE4MC4xMzE1IDMzNy40NjQzIEwxODAuNTYxNiAzMzcuMzM2OSBMMTgwLjk5MTcgMzM3LjIxMDMgTDE4MS40MjE4IDMzNy4wODQ0IEwxODEuODUxOSAzMzYuOTU5MSBMMTgyLjI4MiAzMzYuODM0NCBMMTgyLjcxMjEgMzM2LjcxMDQgTDE4My4xNDIyIDMzNi41ODcxIEwxODMuNTcyMyAzMzYuNDY0NCBMMTg0LjAwMjMgMzM2LjM0MjQgTDE4NC40MzI0IDMzNi4yMjEgTDE4NC44NjI1IDMzNi4xMDAzIEwxODUuMjkyNiAzMzUuOTgwMiBMMTg1LjcyMjcgMzM1Ljg2MDcgTDE4Ni4xNTI4IDMzNS43NDE4IEwxODYuNTgyOSAzMzUuNjIzNSBMMTg3LjAxMyAzMzUuNTA1OSBMMTg3LjQ0MzEgMzM1LjM4ODkgTDE4Ny44NzMyIDMzNS4yNzI1IEwxODguMzAzMiAzMzUuMTU2NyBMMTg4LjczMzMgMzM1LjA0MTUgTDE4OS4xNjM0IDMzNC45MjY4IEwxODkuNTkzNSAzMzQuODEyOCBMMTkwLjAyMzYgMzM0LjY5OTQgTDE5MC40NTM3IDMzNC41ODY2IEwxOTAuODgzOCAzMzQuNDc0MyBMMTkxLjMxMzkgMzM0LjM2MjcgTDE5MS43NDQgMzM0LjI1MTYgTDE5Mi4xNzQxIDMzNC4xNDExIEwxOTIuNjA0MSAzMzQuMDMxMSBMMTkzLjAzNDIgMzMzLjkyMTcgTDE5My40NjQzIDMzMy44MTI5IEwxOTMuODk0NCAzMzMuNzA0NiBMMTk0LjMyNDUgMzMzLjU5NjkgTDE5NC43NTQ2IDMzMy40ODk3IEwxOTUuMTg0NyAzMzMuMzgzMSBMMTk1LjYxNDggMzMzLjI3NyBMMTk2LjA0NDkgMzMzLjE3MTQgTDE5Ni40NzUgMzMzLjA2NjQgTDE5Ni45MDUgMzMyLjk2MTkgTDE5Ny4zMzUxIDMzMi44NTggTDE5Ny43NjUyIDMzMi43NTQ1IEwxOTguMTk1MyAzMzIuNjUxNyBMMTk4LjYyNTQgMzMyLjU0OTMgTDE5OS4wNTU1IDMzMi40NDc0IEwxOTkuNDg1NiAzMzIuMzQ2IEwxOTkuOTE1NyAzMzIuMjQ1MiBMMjAwLjM0NTggMzMyLjE0NDggTDIwMC43NzU5IDMzMi4wNDUgTDIwMS4yMDU5IDMzMS45NDU2IEwyMDEuNjM2IDMzMS44NDY4IEwyMDIuMDY2MSAzMzEuNzQ4NCBMMjAyLjQ5NjIgMzMxLjY1MDYgTDIwMi45MjYzIDMzMS41NTMyIEwyMDMuMzU2NCAzMzEuNDU2MyBMMjAzLjc4NjUgMzMxLjM1OTggTDIwNC4yMTY2IDMzMS4yNjM5IEwyMDQuNjQ2NyAzMzEuMTY4NCBMMjA1LjA3NjggMzMxLjA3MzQgTDIwNS41MDY4IDMzMC45Nzg5IEwyMDUuOTM2OSAzMzAuODg0OCBMMjA2LjM2NyAzMzAuNzkxMiBMMjA2Ljc5NzEgMzMwLjY5OCBMMjA3LjIyNzIgMzMwLjYwNTMgTDIwNy42NTczIDMzMC41MTMgTDIwOC4wODc0IDMzMC40MjEyIEwyMDguNTE3NSAzMzAuMzI5OCBMMjA4Ljk0NzYgMzMwLjIzODkgTDIwOS4zNzc3IDMzMC4xNDg0IEwyMDkuODA3NyAzMzAuMDU4NCBMMjEwLjIzNzggMzI5Ljk2ODggTDIxMC42Njc5IDMyOS44Nzk2IEwyMTEuMDk4IDMyOS43OTA4IEwyMTEuNTI4MSAzMjkuNzAyNSBMMjExLjk1ODIgMzI5LjYxNDYgTDIxMi4zODgzIDMyOS41MjcxIEwyMTIuODE4NCAzMjkuNDQwMSBMMjEzLjI0ODUgMzI5LjM1MzQgTDIxMy42Nzg2IDMyOS4yNjcyIEwyMTQuMTA4NiAzMjkuMTgxMyBMMjE0LjUzODcgMzI5LjA5NTkgTDIxNC45Njg4IDMyOS4wMTA5IEwyMTUuMzk4OSAzMjguOTI2MiBMMjE1LjgyOSAzMjguODQyIEwyMTYuMjU5MSAzMjguNzU4MiBMMjE2LjY4OTIgMzI4LjY3NDcgTDIxNy4xMTkzIDMyOC41OTE3IEwyMTcuNTQ5NCAzMjguNTA5IEwyMTcuOTc5NSAzMjguNDI2NyBMMjE4LjQwOTUgMzI4LjM0NDggTDIxOC44Mzk2IDMyOC4yNjMzIEwyMTkuMjY5NyAzMjguMTgyMiBMMjE5LjY5OTggMzI4LjEwMTQgTDIyMC4xMjk5IDMyOC4wMjExIEwyMjAuNTYgMzI3Ljk0MSBMMjIwLjk5MDEgMzI3Ljg2MTQgTDIyMS40MjAyIDMyNy43ODIxIEwyMjEuODUwMyAzMjcuNzAzMiBMMjIyLjI4MDMgMzI3LjYyNDYgTDIyMi43MTA0IDMyNy41NDY0IEwyMjMuMTQwNSAzMjcuNDY4NiBMMjIzLjU3MDYgMzI3LjM5MTEgTDIyNC4wMDA3IDMyNy4zMTQgTDIyNC40MzA4IDMyNy4yMzcyIEwyMjQuODYwOSAzMjcuMTYwOCBMMjI1LjI5MSAzMjcuMDg0NyBMMjI1LjcyMTEgMzI3LjAwODkgTDIyNi4xNTEyIDMyNi45MzM1IEwyMjYuNTgxMyAzMjYuODU4NSBMMjI3LjAxMTQgMzI2Ljc4MzggTDIyNy40NDE0IDMyNi43MDk0IEwyMjcuODcxNSAzMjYuNjM1MyBMMjI4LjMwMTYgMzI2LjU2MTYgTDIyOC43MzE3IDMyNi40ODgyIEwyMjkuMTYxOCAzMjYuNDE1MSBMMjI5LjU5MTkgMzI2LjM0MjMgTDIzMC4wMjIgMzI2LjI2OTkgTDIzMC40NTIxIDMyNi4xOTc4IEwyMzAuODgyMiAzMjYuMTI2IEwyMzEuMzEyMyAzMjYuMDU0NSBMMjMxLjc0MjMgMzI1Ljk4MzQgTDIzMi4xNzI0IDMyNS45MTI1IEwyMzIuNjAyNSAzMjUuODQyIEwyMzMuMDMyNiAzMjUuNzcxOCBMMjMzLjQ2MjcgMzI1LjcwMTggTDIzMy44OTI4IDMyNS42MzIyIEwyMzQuMzIyOSAzMjUuNTYyOSBMMjM0Ljc1MyAzMjUuNDkzOSBMMjM1LjE4MzEgMzI1LjQyNTIgTDIzNS42MTMyIDMyNS4zNTY4IEwyMzYuMDQzMiAzMjUuMjg4NiBMMjM2LjQ3MzMgMzI1LjIyMDggTDIzNi45MDM0IDMyNS4xNTMzIEwyMzcuMzMzNSAzMjUuMDg2IEwyMzcuNzYzNiAzMjUuMDE5IEwyMzguMTkzNyAzMjQuOTUyNCBMMjM4LjYyMzggMzI0Ljg4NiBMMjM5LjA1MzkgMzI0LjgxOTkgTDIzOS40ODQgMzI0Ljc1NDEgTDIzOS45MTQgMzI0LjY4ODUgTDI0MC4zNDQxIDMyNC42MjMzIEwyNDAuNzc0MiAzMjQuNTU4MyBMMjQxLjIwNDMgMzI0LjQ5MzYgTDI0MS42MzQ0IDMyNC40MjkxIEwyNDIuMDY0NSAzMjQuMzY0OSBMMjQyLjQ5NDYgMzI0LjMwMSBMMjQyLjkyNDcgMzI0LjIzNzQgTDI0My4zNTQ4IDMyNC4xNzQgTDI0My43ODQ5IDMyNC4xMTA5IEwyNDQuMjE1IDMyNC4wNDgxIEwyNDQuNjQ1IDMyMy45ODU1IEwyNDUuMDc1MSAzMjMuOTIzMiBMMjQ1LjUwNTIgMzIzLjg2MTEgTDI0NS45MzUzIDMyMy43OTkzIEwyNDYuMzY1NCAzMjMuNzM3OCBMMjQ2Ljc5NTUgMzIzLjY3NjUgTDI0Ny4yMjU2IDMyMy42MTU0IEwyNDcuNjU1NyAzMjMuNTU0NyBMMjQ4LjA4NTggMzIzLjQ5NDEgTDI0OC41MTU5IDMyMy40MzM4IEwyNDguOTQ2IDMyMy4zNzM4IEwyNDkuMzc2IDMyMy4zMTQgTDI0OS44MDYxIDMyMy4yNTQ0IEwyNTAuMjM2MiAzMjMuMTk1MSBMMjUwLjY2NjMgMzIzLjEzNiBMMjUxLjA5NjQgMzIzLjA3NzIgTDI1MS41MjY1IDMyMy4wMTg2IEwyNTEuOTU2NiAzMjIuOTYwMiBMMjUyLjM4NjcgMzIyLjkwMjEgTDI1Mi44MTY4IDMyMi44NDQyIEwyNTMuMjQ2OCAzMjIuNzg2NiBMMjUzLjY3NjkgMzIyLjcyOTEgTDI1NC4xMDcgMzIyLjY3MTkgTDI1NC41MzcxIDMyMi42MTUgTDI1NC45NjcyIDMyMi41NTgyIEwyNTUuMzk3MyAzMjIuNTAxNyBMMjU1LjgyNzQgMzIyLjQ0NTQgTDI1Ni4yNTc1IDMyMi4zODkzIEwyNTYuNjg3NiAzMjIuMzMzNSBMMjU3LjExNzcgMzIyLjI3NzkgTDI1Ny41NDc3IDMyMi4yMjI0IEwyNTcuOTc3OCAzMjIuMTY3MyBMMjU4LjQwNzkgMzIyLjExMjMgTDI1OC44MzggMzIyLjA1NzUgTDI1OS4yNjgxIDMyMi4wMDMgTDI1OS42OTgyIDMyMS45NDg3IEwyNjAuMTI4MyAzMjEuODk0NSBMMjYwLjU1ODQgMzIxLjg0MDYgTDI2MC45ODg1IDMyMS43ODY5IEwyNjEuNDE4NiAzMjEuNzMzNSBMMjYxLjg0ODYgMzIxLjY4MDIgTDI2Mi4yNzg3IDMyMS42MjcxIEwyNjIuNzA4OCAzMjEuNTc0MiBMMjYzLjEzODkgMzIxLjUyMTUgTDI2My41NjkgMzIxLjQ2OTEgTDI2My45OTkxIDMyMS40MTY4IEwyNjQuNDI5MiAzMjEuMzY0NyBMMjY0Ljg1OTMgMzIxLjMxMjkgTDI2NS4yODk0IDMyMS4yNjEyIEwyNjUuNzE5NSAzMjEuMjA5OCBMMjY2LjE0OTUgMzIxLjE1ODUgTDI2Ni41Nzk3IDMyMS4xMDc0IEwyNjcuMDA5NyAzMjEuMDU2NSBMMjY3LjQzOTggMzIxLjAwNTggTDI2Ny44Njk5IDMyMC45NTU0IEwyNjguMyAzMjAuOTA1IEwyNjguNzMwMSAzMjAuODU0OSBMMjY5LjE2MDIgMzIwLjgwNSBMMjY5LjU5MDMgMzIwLjc1NTIgTDI3MC4wMjA0IDMyMC43MDU3IEwyNzAuNDUwNCAzMjAuNjU2MyBMMjcwLjg4MDYgMzIwLjYwNzEgTDI3MS4zMTA2IDMyMC41NTgxIEwyNzEuNzQwNyAzMjAuNTA5MyBMMjcyLjE3MDggMzIwLjQ2MDcgTDI3Mi42MDA5IDMyMC40MTIyIEwyNzMuMDMxIDMyMC4zNjM5IEwyNzMuNDYxMSAzMjAuMzE1OCBMMjczLjg5MTIgMzIwLjI2NzkgTDI3NC4zMjEzIDMyMC4yMjAyIEwyNzQuNzUxMyAzMjAuMTcyNiBMMjc1LjE4MTQgMzIwLjEyNTIgTDI3NS42MTE1IDMyMC4wNzggTDI3Ni4wNDE2IDMyMC4wMzA5IEwyNzYuNDcxNyAzMTkuOTg0IEwyNzYuOTAxOCAzMTkuOTM3MyBMMjc3LjMzMTkgMzE5Ljg5MDggTDI3Ny43NjIgMzE5Ljg0NDQgTDI3OC4xOTIxIDMxOS43OTgyIEwyNzguNjIyMiAzMTkuNzUyMiBMMjc5LjA1MjIgMzE5LjcwNjMgTDI3OS40ODIzIDMxOS42NjA2IEwyNzkuOTEyNCAzMTkuNjE1MSBMMjgwLjM0MjUgMzE5LjU2OTcgTDI4MC43NzI2IDMxOS41MjQ1IEwyODEuMjAyNyAzMTkuNDc5NSBMMjgxLjYzMjggMzE5LjQzNDYgTDI4Mi4wNjI5IDMxOS4zODk5IEwyODIuNDkzIDMxOS4zNDUzIEwyODIuOTIzMSAzMTkuMzAwOSBMMjgzLjM1MzEgMzE5LjI1NjcgTDI4My43ODMyIDMxOS4yMTI2IEwyODQuMjEzMyAzMTkuMTY4NiBMMjg0LjY0MzQgMzE5LjEyNDggTDI4NS4wNzM1IDMxOS4wODEyIEwyODUuNTAzNiAzMTkuMDM3OCBMMjg1LjkzMzcgMzE4Ljk5NDQgTDI4Ni4zNjM4IDMxOC45NTEzIEwyODYuNzkzOSAzMTguOTA4MyBMMjg3LjIyNCAzMTguODY1NCBMMjg3LjY1NDEgMzE4LjgyMjcgTDI4OC4wODQxIDMxOC43ODAxIEwyODguNTE0MyAzMTguNzM3NyBMMjg4Ljk0NDMgMzE4LjY5NTQgTDI4OS4zNzQ0IDMxOC42NTMzIEwyODkuODA0NSAzMTguNjExMyBMMjkwLjIzNDYgMzE4LjU2OTUgTDI5MC42NjQ3IDMxOC41Mjc4IEwyOTEuMDk0OCAzMTguNDg2MyBMMjkxLjUyNDkgMzE4LjQ0NDkgTDI5MS45NTUgMzE4LjQwMzYgTDI5Mi4zODUgMzE4LjM2MjUgTDI5Mi44MTUxIDMxOC4zMjE2IEwyOTMuMjQ1MiAzMTguMjgwNyBMMjkzLjY3NTMgMzE4LjI0IEwyOTQuMTA1NCAzMTguMTk5NSBMMjk0LjUzNTUgMzE4LjE1OTEgTDI5NC45NjU2IDMxOC4xMTg4IEwyOTUuMzk1NyAzMTguMDc4NiBMMjk1LjgyNTggMzE4LjAzODYgTDI5Ni4yNTU5IDMxNy45OTg4IEwyOTYuNjg1OSAzMTcuOTU5IEwyOTcuMTE2IDMxNy45MTk0IEwyOTcuNTQ2MSAzMTcuODggTDI5Ny45NzYyIDMxNy44NDA2IEwyOTguNDA2MyAzMTcuODAxNSBMMjk4LjgzNjQgMzE3Ljc2MjQgTDI5OS4yNjY1IDMxNy43MjM0IEwyOTkuNjk2NiAzMTcuNjg0NiBMMzAwLjEyNjYgMzE3LjY0NiBMMzAwLjU1NjggMzE3LjYwNzQgTDMwMC45ODY4IDMxNy41NjkgTDMwMS40MTY5IDMxNy41MzA3IEwzMDEuODQ3IDMxNy40OTI1IEwzMDIuMjc3MSAzMTcuNDU0NSBMMzAyLjcwNzIgMzE3LjQxNjYgTDMwMy4xMzczIDMxNy4zNzg4IEwzMDMuNTY3NCAzMTcuMzQxMSBMMzAzLjk5NzUgMzE3LjMwMzYgTDMwNC40Mjc2IDMxNy4yNjYyIEwzMDQuODU3NyAzMTcuMjI4OSBMMzA1LjI4NzggMzE3LjE5MTcgTDMwNS43MTc4IDMxNy4xNTQ3IEwzMDYuMTQ3OSAzMTcuMTE3NyBMMzA2LjU3OCAzMTcuMDgwOSBMMzA3LjAwODEgMzE3LjA0NDIgTDMwNy40MzgyIDMxNy4wMDc3IEwzMDcuODY4MyAzMTYuOTcxMiBMMzA4LjI5ODQgMzE2LjkzNDkgTDMwOC43Mjg1IDMxNi44OTg3IEwzMDkuMTU4NiAzMTYuODYyNSBMMzA5LjU4ODcgMzE2LjgyNjYgTDMxMC4wMTg3IDMxNi43OTA3IEwzMTAuNDQ4OSAzMTYuNzU1IEwzMTAuODc4OSAzMTYuNzE5MyBMMzExLjMwOSAzMTYuNjgzOCBMMzExLjczOTEgMzE2LjY0ODQgTDMxMi4xNjkyIDMxNi42MTMxIEwzMTIuNTk5MyAzMTYuNTc3OSBMMzEzLjAyOTQgMzE2LjU0MjkgTDMxMy40NTk1IDMxNi41MDc5IEwzMTMuODg5NiAzMTYuNDczMSBMMzE0LjMxOTYgMzE2LjQzODMgTDMxNC43NDk3IDMxNi40MDM3IEwzMTUuMTc5OCAzMTYuMzY5MiBMMzE1LjYwOTkgMzE2LjMzNDggTDMxNi4wNCAzMTYuMzAwNSBMMzE2LjQ3MDEgMzE2LjI2NjMgTDMxNi45MDAyIDMxNi4yMzIyIEwzMTcuMzMwMyAzMTYuMTk4MiBMMzE3Ljc2MDQgMzE2LjE2NDQgTDMxOC4xOTA1IDMxNi4xMzA2IEwzMTguNjIwNSAzMTYuMDk3IEwzMTkuMDUwNiAzMTYuMDYzNCBMMzE5LjQ4MDcgMzE2LjAyOTkgTDMxOS45MTA4IDMxNS45OTY2IEwzMjAuMzQwOSAzMTUuOTYzMyBMMzIwLjc3MSAzMTUuOTMwMiBMMzIxLjIwMTEgMzE1Ljg5NzIgTDMyMS42MzEyIDMxNS44NjQzIEwzMjIuMDYxMiAzMTUuODMxNCBMMzIyLjQ5MTQgMzE1Ljc5ODcgTDMyMi45MjE0IDMxNS43NjYxIEwzMjMuMzUxNSAzMTUuNzMzNiBMMzIzLjc4MTYgMzE1LjcwMTEgTDMyNC4yMTE3IDMxNS42Njg4IEwzMjQuNjQxOCAzMTUuNjM2NiBMMzI1LjA3MTkgMzE1LjYwNDQgTDMyNS41MDIgMzE1LjU3MjQgTDMyNS45MzIxIDMxNS41NDA1IEwzMjYuMzYyMiAzMTUuNTA4NiBMMzI2Ljc5MjMgMzE1LjQ3NjkgTDMyNy4yMjIzIDMxNS40NDUyIEwzMjcuNjUyNCAzMTUuNDEzNyBMMzI4LjA4MjUgMzE1LjM4MjIgTDMyOC41MTI2IDMxNS4zNTA5IEwzMjguOTQyNyAzMTUuMzE5NiBMMzI5LjM3MjggMzE1LjI4ODQgTDMyOS44MDI5IDMxNS4yNTc0IEwzMzAuMjMzIDMxNS4yMjY0IEwzMzAuNjYzMSAzMTUuMTk1NSBMMzMxLjA5MzIgMzE1LjE2NDcgTDMzMS41MjMyIDMxNS4xMzQgTDMzMS45NTMzIDMxNS4xMDM0IEwzMzIuMzgzNCAzMTUuMDcyOCBMMzMyLjgxMzUgMzE1LjA0MjQgTDMzMy4yNDM2IDMxNS4wMTIxIEwzMzMuNjczNyAzMTQuOTgxOCBMMzM0LjEwMzggMzE0Ljk1MTcgTDMzNC41MzM5IDMxNC45MjE2IEwzMzQuOTY0IDMxNC44OTE2IEwzMzUuMzk0MSAzMTQuODYxNyBMMzM1LjgyNDEgMzE0LjgzMTkgTDMzNi4yNTQyIDMxNC44MDIyIEwzMzYuNjg0MyAzMTQuNzcyNiBMMzM3LjExNDQgMzE0Ljc0MyBMMzM3LjU0NDUgMzE0LjcxMzYgTDMzNy45NzQ2IDMxNC42ODQyIEwzMzguNDA0NyAzMTQuNjU0OSBMMzM4LjgzNDggMzE0LjYyNTcgTDMzOS4yNjQ5IDMxNC41OTY2IEwzMzkuNjk1IDMxNC41Njc2IEwzNDAuMTI1IDMxNC41Mzg2IEwzNDAuNTU1MSAzMTQuNTA5OCBMMzQwLjk4NTIgMzE0LjQ4MSBMMzQxLjQxNTMgMzE0LjQ1MjMgTDM0MS44NDU0IDMxNC40MjM3IEwzNDIuMjc1NSAzMTQuMzk1MSBMMzQyLjcwNTYgMzE0LjM2NjcgTDM0My4xMzU3IDMxNC4zMzgzIEwzNDMuNTY1OCAzMTQuMzEwMSBMMzQzLjk5NTggMzE0LjI4MTkgTDM0NC40MjU5IDMxNC4yNTM3IEwzNDQuODU2IDMxNC4yMjU3IEwzNDUuMjg2MSAzMTQuMTk3NyBMMzQ1LjcxNjIgMzE0LjE2OTkgTDM0Ni4xNDYzIDMxNC4xNDIxIEwzNDYuNTc2NCAzMTQuMTE0MyBMMzQ3LjAwNjUgMzE0LjA4NjcgTDM0Ny40MzY2IDMxNC4wNTkxIEwzNDcuODY2NyAzMTQuMDMxNiBMMzQ4LjI5NjggMzE0LjAwNDIgTDM0OC43MjY4IDMxMy45NzY5IEwzNDkuMTU2OSAzMTMuOTQ5NiBMMzQ5LjU4NyAzMTMuOTIyNSBMMzUwLjAxNzEgMzEzLjg5NTQgTDM1MC40NDcyIDMxMy44NjgzIEwzNTAuODc3MyAzMTMuODQxNCBMMzUxLjMwNzQgMzEzLjgxNDUgTDM1MS43Mzc1IDMxMy43ODc3IEwzNTIuMTY3NiAzMTMuNzYxIEwzNTIuNTk3NyAzMTMuNzM0NCBMMzUzLjAyNzcgMzEzLjcwNzggTDM1My40NTc4IDMxMy42ODEzIEwzNTMuODg3OSAzMTMuNjU0OSBMMzU0LjMxOCAzMTMuNjI4NSBMMzU0Ljc0ODEgMzEzLjYwMjIgTDM1NS4xNzgyIDMxMy41NzYgTDM1NS42MDgzIDMxMy41NDk5IEwzNTYuMDM4NCAzMTMuNTIzOCBMMzU2LjQ2ODQgMzEzLjQ5NzkgTDM1Ni44OTg2IDMxMy40NzE5IEwzNTcuMzI4NiAzMTMuNDQ2MSBMMzU3Ljc1ODcgMzEzLjQyMDMgTDM1OC4xODg4IDMxMy4zOTQ2IEwzNTguNjE4OSAzMTMuMzY5IEwzNTkuMDQ5IDMxMy4zNDM0IEwzNTkuNDc5MSAzMTMuMzE3OSBMMzU5LjkwOTIgMzEzLjI5MjUgTDM2MC4zMzkzIDMxMy4yNjcyIEwzNjAuNzY5MyAzMTMuMjQxOSBMMzYxLjE5OTUgMzEzLjIxNjYgTDM2MS42Mjk1IDMxMy4xOTE1IEwzNjIuMDU5NiAzMTMuMTY2NCBMMzYyLjQ4OTcgMzEzLjE0MTQgTDM2Mi45MTk4IDMxMy4xMTY1IEwzNjMuMzQ5OSAzMTMuMDkxNiBMMzYzLjc4IDMxMy4wNjY4IEwzNjQuMjEwMSAzMTMuMDQyIEwzNjQuNjQwMiAzMTMuMDE3MyBMMzY1LjA3MDMgMzEyLjk5MjcgTDM2NS41MDA0IDMxMi45NjgyIEwzNjUuOTMwNSAzMTIuOTQzNyBMMzY2LjM2MDUgMzEyLjkxOTMgTDM2Ni43OTA2IDMxMi44OTUgTDM2Ny4yMjA3IDMxMi44NzA3IEwzNjcuNjUwOCAzMTIuODQ2NCBMMzY4LjA4MDkgMzEyLjgyMjMgTDM2OC41MTEgMzEyLjc5ODIgTDM2OC45NDExIDMxMi43NzQyIEwzNjkuMzcxMiAzMTIuNzUwMiBMMzY5LjgwMTMgMzEyLjcyNjMgTDM3MC4yMzE0IDMxMi43MDI1IEwzNzAuNjYxNCAzMTIuNjc4NyBMMzcxLjA5MTUgMzEyLjY1NSBMMzcxLjUyMTYgMzEyLjYzMTMgTDM3MS45NTE3IDMxMi42MDc4IEwzNzIuMzgxOCAzMTIuNTg0MyBMMzcyLjgxMTkgMzEyLjU2MDggTDM3My4yNDIgMzEyLjUzNzQgTDM3My42NzIxIDMxMi41MTQxIEwzNzQuMTAyMSAzMTIuNDkwOCBMMzc0LjUzMjMgMzEyLjQ2NzYgTDM3NC45NjIzIDMxMi40NDQ0IEwzNzUuMzkyNCAzMTIuNDIxMyBMMzc1LjgyMjUgMzEyLjM5ODMgTDM3Ni4yNTI2IDMxMi4zNzUzIEwzNzYuNjgyNyAzMTIuMzUyNCBMMzc3LjExMjggMzEyLjMyOTUgTDM3Ny41NDI5IDMxMi4zMDY3IEwzNzcuOTczIDMxMi4yODQgTDM3OC40MDMgMzEyLjI2MTMgTDM3OC44MzMyIDMxMi4yMzg3IEwzNzkuMjYzMiAzMTIuMjE2MiBMMzc5LjY5MzMgMzEyLjE5MzYgTDM4MC4xMjM0IDMxMi4xNzEyIEwzODAuNTUzNSAzMTIuMTQ4OCBMMzgwLjk4MzYgMzEyLjEyNjUgTDM4MS40MTM3IDMxMi4xMDQyIEwzODEuODQzOCAzMTIuMDgyIEwzODIuMjczOSAzMTIuMDU5OCBMMzgyLjcwMzkgMzEyLjAzNzcgTDM4My4xMzQxIDMxMi4wMTU3IEwzODMuNTY0MSAzMTEuOTkzNyBMMzgzLjk5NDIgMzExLjk3MTcgTDM4NC40MjQzIDMxMS45NDk5IEwzODQuODU0NCAzMTEuOTI4IEwzODUuMjg0NSAzMTEuOTA2MyBMMzg1LjcxNDYgMzExLjg4NDYgTDM4Ni4xNDQ3IDMxMS44NjI5IEwzODYuNTc0OCAzMTEuODQxMyBMMzg3LjAwNDkgMzExLjgxOTcgTDM4Ny40MzUgMzExLjc5ODIgTDM4Ny44NjUxIDMxMS43NzY4IEwzODguMjk1MSAzMTEuNzU1NCBMMzg4LjcyNTIgMzExLjczNDEgTDM4OS4xNTUzIDMxMS43MTI4IEwzODkuNTg1NCAzMTEuNjkxNiBMMzkwLjAxNTUgMzExLjY3MDQgTDM5MC40NDU2IDMxMS42NDkzIEwzOTAuODc1NyAzMTEuNjI4MiBMMzkxLjMwNTggMzExLjYwNzIgTDM5MS43MzU5IDMxMS41ODYyIEwzOTIuMTY2IDMxMS41NjUzIEwzOTIuNTk2IDMxMS41NDQ1IEwzOTMuMDI2MSAzMTEuNTIzNyBMMzkzLjQ1NjIgMzExLjUwMjkgTDM5My44ODYzIDMxMS40ODIyIEwzOTQuMzE2NCAzMTEuNDYxNSBMMzk0Ljc0NjUgMzExLjQ0MDkgTDM5NS4xNzY2IDMxMS40MjA0IEwzOTUuNjA2NyAzMTEuMzk5OSBMMzk2LjAzNjcgMzExLjM3OTQgTDM5Ni40NjY5IDMxMS4zNTkgTDM5Ni44OTY5IDMxMS4zMzg3IEwzOTcuMzI3IDMxMS4zMTg0IEwzOTcuNzU3MSAzMTEuMjk4MSBMMzk4LjE4NzIgMzExLjI3NzkgTDM5OC42MTczIDMxMS4yNTc4IEwzOTkuMDQ3NCAzMTEuMjM3NiBMMzk5LjQ3NzUgMzExLjIxNzYgTDM5OS45MDc2IDMxMS4xOTc2IEw0MDAuMzM3NiAzMTEuMTc3NiBMNDAwLjc2NzggMzExLjE1NzcgTDQwMS4xOTc4IDMxMS4xMzc4IEw0MDEuNjI3OSAzMTEuMTE4IEw0MDIuMDU4IDMxMS4wOTgzIEw0MDIuNDg4MSAzMTEuMDc4NiBMNDAyLjkxODIgMzExLjA1ODkgTDQwMy4zNDgzIDMxMS4wMzkzIEw0MDMuNzc4NCAzMTEuMDE5NyBMNDA0LjIwODUgMzExLjAwMDIgTDQwNC42Mzg1IDMxMC45ODA3IEw0MDUuMDY4NyAzMTAuOTYxMiBMNDA1LjQ5ODcgMzEwLjk0MTkgTDQwNS45Mjg4IDMxMC45MjI1IEw0MDYuMzU4OSAzMTAuOTAzMiBMNDA2Ljc4OSAzMTAuODg0IEw0MDcuMjE5MSAzMTAuODY0NyBMNDA3LjY0OTIgMzEwLjg0NTYgTDQwOC4wNzkzIDMxMC44MjY1IEw0MDguNTA5NCAzMTAuODA3NCBMNDA4LjkzOTUgMzEwLjc4ODQgTDQwOS4zNjk2IDMxMC43Njk0IEw0MDkuNzk5NiAzMTAuNzUwNSBMNDEwLjIyOTcgMzEwLjczMTYgTDQxMC42NTk4IDMxMC43MTI3IEw0MTEuMDg5OSAzMTAuNjkzOSBMNDExLjUyIDMxMC42NzUyIEw0MTEuOTUwMSAzMTAuNjU2NSBMNDEyLjM4MDIgMzEwLjYzNzggTDQxMi44MTAzIDMxMC42MTkyIEw0MTMuMjQwNCAzMTAuNjAwNiBMNDEzLjY3MDUgMzEwLjU4MjEgTDQxNC4xMDA1IDMxMC41NjM2IEw0MTQuNTMwNiAzMTAuNTQ1MSBMNDE0Ljk2MDcgMzEwLjUyNjcgTDQxNS4zOTA4IDMxMC41MDg0IEw0MTUuODIwOSAzMTAuNDkgTDQxNi4yNTEgMzEwLjQ3MTcgTDQxNi42ODExIDMxMC40NTM1IEw0MTcuMTExMiAzMTAuNDM1MyBMNDE3LjU0MTMgMzEwLjQxNzIgTDQxNy45NzEzIDMxMC4zOTkxIEw0MTguNDAxNCAzMTAuMzgxIEw0MTguODMxNSAzMTAuMzYzIEw0MTkuMjYxNiAzMTAuMzQ1IEw0MTkuNjkxNyAzMTAuMzI3IEw0MjAuMTIxOCAzMTAuMzA5MSBMNDIwLjU1MTkgMzEwLjI5MTMgTDQyMC45ODIgMzEwLjI3MzUgTDQyMS40MTIxIDMxMC4yNTU3IEw0MjEuODQyMiAzMTAuMjM3OSBMNDIyLjI3MjIgMzEwLjIyMDIgTDQyMi43MDIzIDMxMC4yMDI2IEw0MjMuMTMyNCAzMTAuMTg1IEw0MjMuNTYyNSAzMTAuMTY3NCBMNDIzLjk5MjYgMzEwLjE0OTkgTDQyNC40MjI3IDMxMC4xMzI0IEw0MjQuODUyOCAzMTAuMTE0OSBMNDI1LjI4MjkgMzEwLjA5NzUgTDQyNS43MTMgMzEwLjA4MDEgTDQyNi4xNDMxIDMxMC4wNjI4IEw0MjYuNTczMiAzMTAuMDQ1NSBMNDI3LjAwMzIgMzEwLjAyODIgTDQyNy40MzMzIDMxMC4wMTEgTDQyNy44NjM0IDMwOS45OTM4IEw0MjguMjkzNSAzMDkuOTc2NyBMNDI4LjcyMzYgMzA5Ljk1OTYgTDQyOS4xNTM3IDMwOS45NDI1IEw0MjkuNTgzOCAzMDkuOTI1NSBMNDMwLjAxMzkgMzA5LjkwODUgTDQzMC40NDQgMzA5Ljg5MTUgTDQzMC44NzQxIDMwOS44NzQ2IEw0MzEuMzA0MSAzMDkuODU3NyBMNDMxLjczNDMgMzA5Ljg0MDkgTDQzMi4xNjQzIDMwOS44MjQxIEw0MzIuNTk0NCAzMDkuODA3MyBMNDMzLjAyNDUgMzA5Ljc5MDYgTDQzMy40NTQ2IDMwOS43NzM5IEw0MzMuODg0NyAzMDkuNzU3MyBMNDM0LjMxNDggMzA5Ljc0MDYgTDQzNC43NDQ5IDMwOS43MjQxIEw0MzUuMTc1IDMwOS43MDc1IEw0MzUuNjA1IDMwOS42OTEgTDQzNi4wMzUyIDMwOS42NzQ2IEw0MzYuNDY1MiAzMDkuNjU4MSBMNDM2Ljg5NTMgMzA5LjY0MTcgTDQzNy4zMjU0IDMwOS42MjU0IEw0MzcuNzU1NSAzMDkuNjA5IEw0MzguMTg1NiAzMDkuNTkyNyBMNDM4LjYxNTcgMzA5LjU3NjUgTDQzOS4wNDU4IDMwOS41NjAzIEw0MzkuNDc1OSAzMDkuNTQ0MSBMNDM5LjkwNTkgMzA5LjUyOCBMNDQwLjMzNiAzMDkuNTExOCBMNDQwLjc2NjEgMzA5LjQ5NTggTDQ0MS4xOTYyIDMwOS40Nzk3IEw0NDEuNjI2MyAzMDkuNDYzNyBMNDQyLjA1NjQgMzA5LjQ0NzggTDQ0Mi40ODY1IDMwOS40MzE4IEw0NDIuOTE2NiAzMDkuNDE1OSBMNDQzLjM0NjcgMzA5LjQwMDEgTDQ0My43NzY4IDMwOS4zODQyIEw0NDQuMjA2OCAzMDkuMzY4NCBMNDQ0LjYzNjkgMzA5LjM1MjcgTDQ0NS4wNjcgMzA5LjMzNjkgTDQ0NS40OTcxIDMwOS4zMjEyIEw0NDUuOTI3MiAzMDkuMzA1NiBMNDQ2LjM1NzMgMzA5LjI4OTkgTDQ0Ni43ODc0IDMwOS4yNzQ0IEw0NDcuMjE3NSAzMDkuMjU4OCBMNDQ3LjY0NzYgMzA5LjI0MzMgTDQ0OC4wNzc3IDMwOS4yMjc4IEw0NDguNTA3OCAzMDkuMjEyMyBMNDQ4LjkzNzggMzA5LjE5NjkgTDQ0OS4zNjggMzA5LjE4MTUgTDQ0OS43OTggMzA5LjE2NjEgTDQ1MC4yMjgxIDMwOS4xNTA4IEw0NTAuNjU4MiAzMDkuMTM1NSBMNDUxLjA4ODMgMzA5LjEyMDIgTDQ1MS41MTg0IDMwOS4xMDUgTDQ1MS45NDg1IDMwOS4wODk4IEw0NTIuMzc4NiAzMDkuMDc0NiBMNDUyLjgwODcgMzA5LjA1OTUgTDQ1My4yMzg3IDMwOS4wNDQ0IEw0NTMuNjY4OSAzMDkuMDI5MyBMNDU0LjA5ODkgMzA5LjAxNDMgTDQ1NC41MjkgMzA4Ljk5OTMgTDQ1NC45NTkxIDMwOC45ODQzIEw0NTUuMzg5MiAzMDguOTY5MyBMNDU1LjgxOTMgMzA4Ljk1NDQgTDQ1Ni4yNDk0IDMwOC45Mzk1IEw0NTYuNjc5NSAzMDguOTI0NyBMNDU3LjEwOTYgMzA4LjkwOTkgTDQ1Ny41Mzk2IDMwOC44OTUxIEw0NTcuOTY5OCAzMDguODgwMyBMNDU4LjM5OTggMzA4Ljg2NTYgTDQ1OC44Mjk5IDMwOC44NTA5IEw0NTkuMjYgMzA4LjgzNjIgTDQ1OS42OTAxIDMwOC44MjE2IEw0NjAuMTIwMiAzMDguODA3IEw0NjAuNTUwMyAzMDguNzkyNCBMNDYwLjk4MDQgMzA4Ljc3NzkgTDQ2MS40MTA1IDMwOC43NjM0IEw0NjEuODQwNSAzMDguNzQ4OSBMNDYyLjI3MDYgMzA4LjczNDQgTDQ2Mi43MDA3IDMwOC43MiBMNDYzLjEzMDggMzA4LjcwNTYgTDQ2My41NjA5IDMwOC42OTEyIEw0NjMuOTkxIDMwOC42NzY5IEw0NjQuNDIxMSAzMDguNjYyNiBMNDY0Ljg1MTIgMzA4LjY0ODMgTDQ2NS4yODEzIDMwOC42MzQxIEw0NjUuNzExNCAzMDguNjE5OSBMNDY2LjE0MTQgMzA4LjYwNTcgTDQ2Ni41NzE1IDMwOC41OTE1IEw0NjcuMDAxNiAzMDguNTc3NCBMNDY3LjQzMTcgMzA4LjU2MzMgTDQ2Ny44NjE4IDMwOC41NDkyIEw0NjguMjkxOSAzMDguNTM1MiBMNDY4LjcyMiAzMDguNTIxMSBMNDY5LjE1MjEgMzA4LjUwNzIgTDQ2OS41ODIyIDMwOC40OTMyIEw0NzAuMDEyMyAzMDguNDc5MyBMNDcwLjQ0MjQgMzA4LjQ2NTQgTDQ3MC44NzI0IDMwOC40NTE1IEw0NzEuMzAyNiAzMDguNDM3NyBMNDcxLjczMjYgMzA4LjQyMzkgTDQ3Mi4xNjI3IDMwOC40MTAxIEw0NzIuNTkyOCAzMDguMzk2MyBMNDczLjAyMjkgMzA4LjM4MjYgTDQ3My40NTMgMzA4LjM2ODkgTDQ3My44ODMxIDMwOC4zNTUyIEw0NzQuMzEzMiAzMDguMzQxNSBMNDc0Ljc0MzMgMzA4LjMyNzkgTDQ3NS4xNzMzIDMwOC4zMTQzIEw0NzUuNjAzNSAzMDguMzAwOCBMNDc2LjAzMzUgMzA4LjI4NzIgTDQ3Ni40NjM2IDMwOC4yNzM3IEw0NzYuODkzNyAzMDguMjYwMiBMNDc3LjMyMzggMzA4LjI0NjcgTDQ3Ny43NTM5IDMwOC4yMzMzIEw0NzguMTg0IDMwOC4yMTk5IEw0NzguNjE0MSAzMDguMjA2NSBMNDc5LjA0NDIgMzA4LjE5MzIgTDQ3OS40NzQyIDMwOC4xNzk4IEw0NzkuOTA0MyAzMDguMTY2NSBMNDgwLjMzNDQgMzA4LjE1MzMgTDQ4MC43NjQ1IDMwOC4xNCBMNDgxLjE5NDYgMzA4LjEyNjggTDQ4MS42MjQ3IDMwOC4xMTM2IEw0ODIuMDU0OCAzMDguMTAwNCBMNDgyLjQ4NDkgMzA4LjA4NzMgTDQ4Mi45MTUgMzA4LjA3NDIgTDQ4My4zNDUxIDMwOC4wNjExIEw0ODMuNzc1MSAzMDguMDQ4IEw0ODQuMjA1MiAzMDguMDM1IEw0ODQuNjM1MyAzMDguMDIyIEw0ODUuMDY1NCAzMDguMDA5IEw0ODUuNDk1NSAzMDcuOTk2IEw0ODUuOTI1NiAzMDcuOTgzMSBMNDg2LjM1NTcgMzA3Ljk3MDIgTDQ4Ni43ODU4IDMwNy45NTczIEw0ODcuMjE1OCAzMDcuOTQ0NCBMNDg3LjY0NiAzMDcuOTMxNiBMNDg4LjA3NiAzMDcuOTE4OCBMNDg4LjUwNjEgMzA3LjkwNiBMNDg4LjkzNjIgMzA3Ljg5MzIgTDQ4OS4zNjYzIDMwNy44ODA1IEw0ODkuNzk2NCAzMDcuODY3OCBMNDkwLjIyNjUgMzA3Ljg1NTEgTDQ5MC42NTY2IDMwNy44NDI0IEw0OTEuMDg2NyAzMDcuODI5OCBMNDkxLjUxNjggMzA3LjgxNzIgTDQ5MS45NDY5IDMwNy44MDQ2IEw0OTIuMzc2OSAzMDcuNzkyMSBMNDkyLjgwNyAzMDcuNzc5NSBMNDkzLjIzNzEgMzA3Ljc2NyBMNDkzLjY2NzIgMzA3Ljc1NDUgTDQ5NC4wOTczIDMwNy43NDIgTDQ5NC41Mjc0IDMwNy43Mjk2IEw0OTQuOTU3NSAzMDcuNzE3MiBMNDk1LjM4NzYgMzA3LjcwNDggTDQ5NS44MTc3IDMwNy42OTI0IEw0OTYuMjQ3OCAzMDcuNjgwMSBMNDk2LjY3NzggMzA3LjY2NzcgTDQ5Ny4xMDc5IDMwNy42NTU0IEw0OTcuNTM4IDMwNy42NDMxIEw0OTcuOTY4MSAzMDcuNjMwOSBMNDk4LjM5ODIgMzA3LjYxODcgTDQ5OC44MjgzIDMwNy42MDY0IEw0OTkuMjU4NCAzMDcuNTk0MyBMNDk5LjY4ODUgMzA3LjU4MjEgTDUwMC4xMTg2IDMwNy41NyBMNTAwLjU0ODcgMzA3LjU1NzkgTDUwMC45Nzg3IDMwNy41NDU3IEw1MDEuNDA4OCAzMDcuNTMzNyBMNTAxLjgzODkgMzA3LjUyMTYgTDUwMi4yNjkgMzA3LjUwOTYgTDUwMi42OTkxIDMwNy40OTc2IEw1MDMuMTI5MiAzMDcuNDg1NiBMNTAzLjU1OTMgMzA3LjQ3MzcgTDUwMy45ODk0IDMwNy40NjE4IEw1MDQuNDE5NSAzMDcuNDQ5OCBMNTA0Ljg0OTYgMzA3LjQzOCBMNTA1LjI3OTYgMzA3LjQyNjEgTDUwNS43MDk3IDMwNy40MTQyIEw1MDYuMTM5OCAzMDcuNDAyNCBMNTA2LjU2OTkgMzA3LjM5MDYgTDUwNyAzMDcuMzc4OCIgc3R5bGU9ImZpbGw6bm9uZTsgc3Ryb2tlLXdpZHRoOjI7IGZpbGwtcnVsZTpldmVub2RkOyBzdHJva2U6cmdiKDIxNyw4MywyNSk7Ig0KICAgIC8+PC9nDQogICAgPjxnIHN0eWxlPSJmaWxsOndoaXRlOyB0ZXh0LXJlbmRlcmluZzpvcHRpbWl6ZVNwZWVkOyBjb2xvci1yZW5kZXJpbmc6b3B0aW1pemVTcGVlZDsgaW1hZ2UtcmVuZGVyaW5nOm9wdGltaXplU3BlZWQ7IHNoYXBlLXJlbmRlcmluZzpjcmlzcEVkZ2VzOyBzdHJva2U6d2hpdGU7IGNvbG9yLWludGVycG9sYXRpb246c1JHQjsiDQogICAgPjxwYXRoIHN0eWxlPSJzdHJva2U6bm9uZTsiIGQ9Ik00OTYgNjUgTDQ5NiA0MiBMNDIzIDQyIEw0MjMgNjUgWiINCiAgICAvPjwvZw0KICAgID48ZyB0cmFuc2Zvcm09InRyYW5zbGF0ZSg0NjkuNjcwNCw1My41KSIgc3R5bGU9ImZvbnQtc2l6ZToxNnB4OyB0ZXh0LXJlbmRlcmluZzpnZW9tZXRyaWNQcmVjaXNpb247IGNvbG9yLXJlbmRlcmluZzpvcHRpbWl6ZVF1YWxpdHk7IGltYWdlLXJlbmRlcmluZzpvcHRpbWl6ZVF1YWxpdHk7IGZvbnQtZmFtaWx5Oidtd2FfY21taTEwJzsgY29sb3ItaW50ZXJwb2xhdGlvbjpsaW5lYXJSR0I7Ig0KICAgID48cGF0aCBzdHlsZT0ic3Ryb2tlOm5vbmU7IiBkPSJNMy41MzEyIDQuMDI3NCBMMi4yNSAtNi4xNzU3IFEyLjEyNSAtNi41MzUxIDEuMDQ2OSAtNi41MzUxIFEwLjg5MDYgLTYuNTM1MSAwLjg5MDYgLTYuNzM4MiBRMC45MjE5IC02LjkxMDEgMC45Njg4IC03LjAwMzggUTEuMDE1NiAtNy4wOTc2IDEuMTU2MiAtNy4wOTc2IEw1LjA2MjUgLTcuMDk3NiBRNS4xNDA2IC03LjA5NzYgNS4xNzk3IC03LjAzNTEgUTUuMjE4OCAtNi45NzI2IDUuMjE4OCAtNi44Nzg4IFE1LjE1NjIgLTYuNTM1MSA1LjAxNTYgLTYuNTM1MSBRMy43NjU2IC02LjUzNTEgMy42ODc1IC02LjA5NzYgTDQuNzM0NCAyLjI2MTggTDkuNjcxOSAtNS41OTc2IFE5LjgxMjUgLTUuODYzMiA5LjgxMjUgLTYuMDE5NCBROS44MTI1IC02LjMwMDcgOS41NTQ3IC02LjQxNzkgUTkuMjk2OSAtNi41MzUxIDguOTY4OCAtNi41MzUxIFE4Ljc5NjkgLTYuNTM1MSA4Ljc5NjkgLTYuNzM4MiBROC44MjgxIC02Ljg2MzIgOC44NTE2IC02LjkzMzUgUTguODc1IC03LjAwMzggOC45MjE5IC03LjA1MDcgUTguOTY4OCAtNy4wOTc2IDkuMDc4MSAtNy4wOTc2IEwxMi4xNTYyIC03LjA5NzYgUTEyLjMxMjUgLTcuMDk3NiAxMi4zMTI1IC02Ljg3ODggUTEyLjI1IC02LjUzNTEgMTIuMDkzOCAtNi41MzUxIFExMC44OTA2IC02LjUzNTEgMTAuMjE4OCAtNS40NzI2IFExMC4xODc1IC01LjQ0MTMgMTAuMTU2MiAtNS40NDEzIEw0LjI2NTYgNC4wMjc0IFE0LjE0MDYgNC4xOTkzIDMuOTUzMSA0LjE5OTMgTDMuNzM0NCA0LjE5OTMgUTMuNTQ2OSA0LjE5OTMgMy41MzEyIDQuMDI3NCBaIg0KICAgIC8+PC9nDQogICAgPjxnIHRyYW5zZm9ybT0idHJhbnNsYXRlKDQ2OS42NzA0LDUzLjUpIiBzdHlsZT0iZm9udC1zaXplOjExLjJweDsgdGV4dC1yZW5kZXJpbmc6Z2VvbWV0cmljUHJlY2lzaW9uOyBjb2xvci1yZW5kZXJpbmc6b3B0aW1pemVRdWFsaXR5OyBpbWFnZS1yZW5kZXJpbmc6b3B0aW1pemVRdWFsaXR5OyBmb250LWZhbWlseTonbXdhX2NtcjEwJzsgY29sb3ItaW50ZXJwb2xhdGlvbjpsaW5lYXJSR0I7Ig0KICAgID48cGF0aCBzdHlsZT0ic3Ryb2tlOm5vbmU7IiBkPSJNMTIuMDY3NyA2LjM2NDkgUTExLjM5NTggNi4zNjQ5IDEwLjg0MTEgNi4wMTM0IFExMC4yODY1IDUuNjYxOCA5Ljk2NjEgNS4wNzU5IFE5LjY0NTggNC40ODk5IDkuNjQ1OCAzLjgzMzcgUTkuNjQ1OCAzLjE3NzQgOS45MzQ5IDIuNTk5MyBRMTAuMjI0IDIuMDIxMiAxMC43NDc0IDEuNjYxOCBRMTEuMjcwOCAxLjMwMjQgMTEuOTExNSAxLjMwMjQgUTEyLjQyNzEgMS4zMDI0IDEyLjc5NDMgMS40NzQzIFExMy4xNjE1IDEuNjQ2MiAxMy40MDM2IDEuOTUwOSBRMTMuNjQ1OCAyLjI1NTUgMTMuNzcwOCAyLjY2MTggUTEzLjg5NTggMy4wNjggMTMuODk1OCAzLjU1MjQgUTEzLjg5NTggMy42OTMgMTMuNzg2NSAzLjY5MyBMMTAuNTk5IDMuNjkzIEwxMC41OTkgMy44MTggUTEwLjU5OSA0LjcyNDMgMTAuOTY2MSA1LjM4MDUgUTExLjMzMzMgNi4wMzY4IDEyLjE3NzEgNi4wMzY4IFExMi41MDUyIDYuMDM2OCAxMi43OTQzIDUuODg4NCBRMTMuMDgzMyA1LjczOTkgMTMuMjk0MyA1LjQ3NDMgUTEzLjUwNTIgNS4yMDg3IDEzLjU4MzMgNC44OTYyIFExMy41OTkgNC44NjQ5IDEzLjYyMjQgNC44MzM3IFExMy42NDU4IDQuODAyNCAxMy42OTI3IDQuODAyNCBMMTMuNzg2NSA0LjgwMjQgUTEzLjg5NTggNC44MDI0IDEzLjg5NTggNC45NDMgUTEzLjczOTYgNS41NjggMTMuMjI0IDUuOTY2NSBRMTIuNzA4MyA2LjM2NDkgMTIuMDY3NyA2LjM2NDkgWk0xMC42MTQ2IDMuNDI3NCBMMTMuMTE0NiAzLjQyNzQgUTEzLjExNDYgMy4wMDU1IDEzLjAwNTIgMi41ODM3IFExMi44OTU4IDIuMTYxOCAxMi42MjI0IDEuODgwNSBRMTIuMzQ5IDEuNTk5MyAxMS45MTE1IDEuNTk5MyBRMTEuMjg2NSAxLjU5OTMgMTAuOTUwNSAyLjE4NTIgUTEwLjYxNDYgMi43NzEyIDEwLjYxNDYgMy40Mjc0IFoiDQogICAgICAvPjxwYXRoIHN0eWxlPSJzdHJva2U6bm9uZTsiIGQ9Ik0xNC41OTI0IDYuMjM5OSBMMTQuNTkyNCA1Ljg0OTMgUTE0Ljk2NzQgNS44NDkzIDE1LjIwOTUgNS43OTQ2IFExNS40NTE3IDUuNzM5OSAxNS40NTE3IDUuNTA1NSBMMTUuNDUxNyAxLjg4MDUgTDE0LjYwOCAxLjg4MDUgTDE0LjYwOCAxLjQ4OTkgTDE1LjQ1MTcgMS40ODk5IEwxNS40NTE3IDAuMTc3NCBRMTUuNDUxNyAtMC4yMjg4IDE1LjY4NjEgLTAuNTU3IFExNS45MjA1IC0wLjg4NTEgMTYuMjg3NyAtMS4wOTYgUTE2LjY1NDkgLTEuMzA3IDE3LjA3NjcgLTEuNDA4NSBRMTcuNDk4NiAtMS41MTAxIDE3Ljg4OTIgLTEuNTEwMSBRMTguMjMzIC0xLjUxMDEgMTguNTUzMyAtMS40MDA3IFExOC44NzM2IC0xLjI5MTMgMTkuMDYxMSAtMS4wNDEzIFExOS41NzY3IC0xLjUxMDEgMjAuMjk1NSAtMS41MTAxIFEyMC42NzA1IC0xLjUxMDEgMjAuOTY3NCAtMS4yOTEzIFEyMS4yNjQyIC0xLjA3MjYgMjEuMjY0MiAtMC43MTMyIFEyMS4yNjQyIC0wLjQ5NDUgMjEuMTIzNiAtMC4zNTM4IFEyMC45ODMgLTAuMjEzMiAyMC43NjQyIC0wLjIxMzIgUTIwLjU2MTEgLTAuMjEzMiAyMC40MTI3IC0wLjM1MzggUTIwLjI2NDIgLTAuNDk0NSAyMC4yNjQyIC0wLjcxMzIgUTIwLjI2NDIgLTEuMDU3IDIwLjU2MTEgLTEuMTY2MyBRMjAuMzczNiAtMS4yMjg4IDIwLjI0ODYgLTEuMjI4OCBRMTkuOTIwNSAtMS4yMjg4IDE5LjY4NjEgLTEuMDAyMyBRMTkuNDUxNyAtMC43NzU3IDE5LjM0MjQgLTAuNDQ3NiBRMTkuMjMzIC0wLjExOTUgMTkuMjMzIDAuMjA4NyBMMTkuMjMzIDEuNDg5OSBMMjAuNDk4NiAxLjQ4OTkgTDIwLjQ5ODYgMS44ODA1IEwxOS4yNjQyIDEuODgwNSBMMTkuMjY0MiA1LjUwNTUgUTE5LjI2NDIgNS43MjQzIDE5LjU4NDUgNS43ODY4IFExOS45MDQ5IDUuODQ5MyAyMC4zMjY3IDUuODQ5MyBMMjAuMzI2NyA2LjIzOTkgTDE3LjYyMzYgNi4yMzk5IEwxNy42MjM2IDUuODQ5MyBRMTguMDE0MiA1Ljg0OTMgMTguMjQ4NiA1Ljc5NDYgUTE4LjQ4MyA1LjczOTkgMTguNDgzIDUuNTA1NSBMMTguNDgzIDEuODgwNSBMMTYuMjE3NCAxLjg4MDUgTDE2LjIxNzQgNS41MDU1IFExNi4yMTc0IDUuNzM5OSAxNi40Njc0IDUuNzk0NiBRMTYuNzE3NCA1Ljg0OTMgMTcuMDc2NyA1Ljg0OTMgTDE3LjA3NjcgNi4yMzk5IEwxNC41OTI0IDYuMjM5OSBaTTE2LjE4NjEgMS40ODk5IEwxOC40ODMgMS40ODk5IEwxOC40ODMgMC4xNzc0IFExOC40ODMgMC4wODM3IDE4LjUxNDIgLTAuMTAzOCBRMTguMjE3NCAtMC4yNDQ1IDE4LjIxNzQgLTAuNTU3IFExOC4yMTc0IC0wLjc0NDUgMTguMzE4OSAtMC44Njk1IFExOC40MjA1IC0wLjk5NDUgMTguNTkyNCAtMS4wNDEzIFExOC4yNzk5IC0xLjIyODggMTcuNzk1NSAtMS4yMjg4IFExNy4zODkyIC0xLjIyODggMTcuMDIyIC0xLjA0MTMgUTE2LjY1NDkgLTAuODUzOCAxNi40MjA1IC0wLjUyNTcgUTE2LjE4NjEgLTAuMTk3NiAxNi4xODYxIDAuMjA4NyBMMTYuMTg2MSAxLjQ4OTkgWiINCiAgICAvPjwvZw0KICAgID48ZyBzdHlsZT0ic3Ryb2tlLWxpbmVjYXA6YnV0dDsgZmlsbDpyZ2IoMjE3LDgzLDI1KTsgdGV4dC1yZW5kZXJpbmc6Z2VvbWV0cmljUHJlY2lzaW9uOyBpbWFnZS1yZW5kZXJpbmc6b3B0aW1pemVRdWFsaXR5OyBjb2xvci1yZW5kZXJpbmc6b3B0aW1pemVRdWFsaXR5OyBzdHJva2UtbGluZWpvaW46cm91bmQ7IHN0cm9rZTpyZ2IoMjE3LDgzLDI1KTsgY29sb3ItaW50ZXJwb2xhdGlvbjpsaW5lYXJSR0I7IHN0cm9rZS13aWR0aDoyOyINCiAgICA+PGxpbmUgeTI9IjUzLjUiIHN0eWxlPSJmaWxsOm5vbmU7IiB4MT0iNDI2Ljk3MiIgeDI9IjQ2Ni42OTE0IiB5MT0iNTMuNSINCiAgICAvPjwvZw0KICAgID48ZyBzdHlsZT0ic3Ryb2tlLWxpbmVjYXA6YnV0dDsgZmlsbDpyZ2IoMzgsMzgsMzgpOyB0ZXh0LXJlbmRlcmluZzpnZW9tZXRyaWNQcmVjaXNpb247IGNvbG9yLXJlbmRlcmluZzpvcHRpbWl6ZVF1YWxpdHk7IGltYWdlLXJlbmRlcmluZzpvcHRpbWl6ZVF1YWxpdHk7IHN0cm9rZTpyZ2IoMzgsMzgsMzgpOyBjb2xvci1pbnRlcnBvbGF0aW9uOmxpbmVhclJHQjsgc3Ryb2tlLXdpZHRoOjAuNjY2NzsiDQogICAgPjxwYXRoIGQ9Ik00MjMgNjUgTDQyMyA0MiBMNDk2IDQyIEw0OTYgNjUgWiIgc3R5bGU9ImZpbGw6bm9uZTsgZmlsbC1ydWxlOmV2ZW5vZGQ7Ig0KICAgIC8+PC9nDQogID48L2cNCj48L3N2Zw0KPg0K;connectable=0;" vertex="1" parent="1">
          <mxGeometry x="80" y="100" width="560" height="420" as="geometry" />
        </mxCell>
        <mxCell id="QojNYpFEsTkHcpdhv4qP-2" value="" style="endArrow=none;html=1;rounded=0;strokeWidth=1.5;strokeColor=#3399FF;" edge="1" parent="1">
          <mxGeometry width="50" height="50" relative="1" as="geometry">
            <mxPoint x="153" y="395" as="sourcePoint" />
            <mxPoint x="590" y="395" as="targetPoint" />
          </mxGeometry>
        </mxCell>
        <mxCell id="QojNYpFEsTkHcpdhv4qP-3" value="$$E$$" style="text;html=1;align=center;verticalAlign=middle;resizable=0;points=[];autosize=1;strokeColor=none;fillColor=none;fontColor=#3399FF;" vertex="1" parent="1">
          <mxGeometry x="530" y="365" width="60" height="30" as="geometry" />
        </mxCell>
        <mxCell id="QojNYpFEsTkHcpdhv4qP-4" value="" style="ellipse;whiteSpace=wrap;html=1;aspect=fixed;strokeColor=none;fillColor=#3399FF;" vertex="1" parent="1">
          <mxGeometry x="172.5" y="392.5" width="5" height="5" as="geometry" />
        </mxCell>
      </root>
    </mxGraphModel>
  </diagram>
</mxfile>
